<?xml version="1.0" encoding="UTF-8"?>
<!DOCTYPE svg PUBLIC "-//W3C//DTD SVG 1.1//EN" "http://www.w3.org/Graphics/SVG/1.1/DTD/svg11.dtd">
<!-- Creator: CorelDRAW 2021 (64-Bit) -->
<svg xmlns="http://www.w3.org/2000/svg" xml:space="preserve" width="210mm" height="297mm" version="1.1" style="shape-rendering:geometricPrecision; text-rendering:geometricPrecision; image-rendering:optimizeQuality; fill-rule:evenodd; clip-rule:evenodd"
viewBox="0 0 21000 29700"
 xmlns:xlink="http://www.w3.org/1999/xlink"
 xmlns:xodm="http://www.corel.com/coreldraw/odm/2003">
 <defs>
  <style type="text/css">
   <![CDATA[
    .str0 {stroke:black;stroke-width:7.62;stroke-miterlimit:22.9256}
    .str1 {stroke:black;stroke-width:30.79;stroke-linecap:round;stroke-miterlimit:22.9256;stroke-dasharray:135.520000 304.920000}
    .fil1 {fill:none;fill-rule:nonzero}
    .fil2 {fill:black;fill-rule:nonzero}
    .fil0 {fill:black;fill-rule:nonzero}
   ]]>
  </style>
 </defs>
 <g id="Capa_x0020_1">
  <metadata id="CorelCorpID_0Corel-Layer"/>
  <path class="fil0 str0" d="M11152.58 14510.91l140.55 140.59 165.06 -165.07c-68.81,-19.93 -135.99,-46.89 -200.33,-80.78l-105.28 105.26z"/>
  <path class="fil0 str0" d="M11742.46 14410.97c89.36,0 178.69,-34.08 246.83,-102.27l561.02 -560.98c17.79,-17.79 17.79,-46.67 0,-64.52l-7.85 -7.79c-8.89,-8.89 -20.54,-13.34 -32.23,-13.34 -11.65,0 -23.34,4.45 -32.23,13.34l-518.89 518.89 -73.64 -73.6 518.87 -518.93c17.8,-17.83 17.8,-46.68 0,-64.48 -8.89,-8.87 -20.58,-13.34 -32.23,-13.34 -11.64,0 -23.32,4.47 -32.23,13.34l-518.89 518.89 -73.41 -73.36 518.94 -518.88c17.79,-17.85 17.79,-46.7 0,-64.48 -8.89,-8.94 -20.59,-13.39 -32.24,-13.39 -11.69,0 -23.34,4.45 -32.23,13.39l-518.94 518.88 -73.35 -73.37 518.91 -518.91c17.8,-17.8 17.8,-46.7 0,-64.48l-7.83 -7.79c-8.89,-8.95 -20.6,-13.39 -32.28,-13.39 -11.64,0 -23.29,4.44 -32.2,13.39l-561.02 560.98c-79.97,79.97 -112.99,188.96 -99.19,293.09 11.34,85.38 -12.15,171.63 -73.04,232.52l-65.25 65.27c64.34,33.89 131.52,60.85 200.33,80.78l0 0c62.56,-62.53 150.78,-89.95 238.45,-78.45 15.18,1.98 30.5,2.99 45.82,2.99z"/>
  <path class="fil0 str0" d="M12550.31 13747.72c17.79,-17.79 17.79,-46.67 0,-64.52l-7.85 -7.79c-8.89,-8.89 -20.54,-13.34 -32.23,-13.34 -11.65,0 -23.34,4.45 -32.23,13.34l-518.89 518.89 -73.64 -73.6 518.87 -518.93c17.8,-17.83 17.8,-46.68 0,-64.48 -8.89,-8.87 -20.58,-13.37 -32.23,-13.37 -11.64,0 -23.32,4.5 -32.23,13.37l-518.89 518.89 -73.41 -73.36 518.88 -518.88c17.85,-17.85 17.85,-46.7 0,-64.48 -8.83,-8.94 -20.53,-13.39 -32.18,-13.39 -11.69,0 -23.34,4.45 -32.23,13.39l-518.94 518.88 -73.35 -73.37 518.91 -518.91c17.8,-17.8 17.8,-46.7 0,-64.48l-7.83 -7.79c-8.89,-8.95 -20.6,-13.39 -32.28,-13.39 -11.64,0 -23.29,4.44 -32.23,13.39l-560.99 560.98c-22.28,22.28 -40.53,47 -55.53,73.08l476.42 476.43c26.1,-15.05 50.81,-33.29 73.06,-55.58l561.02 -560.98z"/>
  <path class="fil0 str0" d="M11396.15 14107.86c11.34,85.38 -12.15,171.63 -73.04,232.52l-65.25 65.27c64.34,33.89 131.52,60.85 200.33,80.78 62.56,-62.53 150.78,-89.95 238.45,-78.45 15.18,1.98 30.5,2.99 45.82,2.99 60.14,0 120.08,-15.82 173.77,-46.69l-476.42 -476.43c-38.83,67.45 -53.59,144.91 -43.66,220.01z"/>
  <path class="fil0 str0" d="M9766.68 15896.82c-43.38,43.37 -38.66,116.67 14.82,153.07 16.22,10.99 34.79,16.22 53.45,16.22 27.29,0 54.62,-11.08 74.89,-31.37l729.07 -729.03c-73.95,-14.85 -146.77,-35.66 -217.42,-63.69l-654.81 654.8z"/>
  <path class="fil0 str0" d="M10770.43 14893.08l-348.94 348.94c70.65,28.03 143.47,48.84 217.42,63.69l299.71 -299.7c-56.85,-33 -113.02,-70.94 -168.19,-112.93z"/>
  <path class="fil0 str0" d="M12413.3 15896.82l-2505.35 -2505.33c-5.54,-5.51 -11.65,-7.98 -17.6,-7.98 -12.47,0 -24.58,10.59 -30.87,25.67 -59.04,142.43 675.21,1494.85 1423.13,1638.11l986.34 986.31c20.68,20.64 48.78,32.11 76.58,32.11 19.49,0 38.83,-5.6 55.39,-17.56 51.18,-36.97 55.06,-108.64 12.38,-151.33z"/>
  <path class="fil0 str0" d="M12413.3 15896.82l-2505.35 -2505.33c-5.54,-5.51 -11.65,-7.98 -17.6,-7.98 -6.65,0 -13.11,3.15 -18.71,8.25l2545.6 2641.63c35.04,-39.09 33.62,-99.02 -3.94,-136.57z"/>
  <path class="fil0" d="M11150.53 12232.65c-1296.87,0 -2351.93,1055.07 -2351.93,2351.92 0,1296.85 1055.06,2351.9 2351.93,2351.9 1296.83,0 2351.9,-1055.05 2351.9,-2351.9 0,-1296.85 -1055.07,-2351.92 -2351.9,-2351.92zm0 4754.09c-1324.56,0 -2402.19,-1077.63 -2402.19,-2402.17 0,-1324.6 1077.63,-2402.17 2402.19,-2402.17 1324.58,0 2402.17,1077.57 2402.17,2402.17 0,1324.54 -1077.59,2402.17 -2402.17,2402.17z"/>
  <path class="fil1 str1" d="M11150.53 16803.31c-1223.41,0 -2218.78,-995.31 -2218.78,-2218.74 0,-1223.39 995.37,-2218.76 2218.78,-2218.76 1223.43,0 2218.74,995.37 2218.74,2218.76 0,1223.43 -995.31,2218.74 -2218.74,2218.74z"/>
  <path class="fil2" d="M9404.88 12395.32c-11.48,13.75 -20.54,24.59 -27.13,32.32 -6.5,7.83 -14.47,18.54 -23.58,31.83 -9.22,13.37 -17.38,26.63 -24.46,39.74 -7.1,13.12 -14.7,29.25 -22.97,48.78l-50.06 -38.15c-5.64,-4.23 -10.93,-8 -15.89,-11.42 -4.84,-3.53 -14.63,-9.73 -29.49,-18.84 -10.29,7.35 -23.94,16.81 -41.01,28.48 -17.07,11.67 -30.53,21.79 -40.27,30.25l-84.98 73.87c4.43,23.39 8.64,46.74 12.96,70.2l14.48 66.49c-13.88,-0.65 -26.44,-0.46 -37.45,0.58 -11.14,1.14 -22.67,3.4 -34.91,6.9 -12.36,3.4 -23.16,7.22 -32.59,11.45 -9.44,4.23 -19.41,9.91 -29.86,16.83 -2.86,-15.6 -5.13,-27.15 -6.73,-34.48 -1.63,-7.34 -4.18,-18.05 -7.78,-32 -2.01,-7.38 -3.96,-14.63 -5.88,-22.09 -2.04,-7.38 -4.07,-14.96 -6.41,-22.46l-100.57 -57.62 66.85 -36.46c-13.02,-46.28 -25.59,-88.62 -37.59,-126.66 -12.01,-38.25 -26.19,-80.17 -42.44,-125.83 -10.48,-29.44 -21.92,-60.42 -34.42,-93.08 -12.39,-32.74 -25.02,-63.5 -37.58,-92.1l49.17 -57.04c16.9,-21.67 31.59,-41.59 44.03,-59.97l31.6 25.38c28.24,21.96 58.05,42.54 89.77,61.65 19.89,11.9 48.41,28.03 85.36,48.36 40.76,22.41 72.54,40.47 95.27,54.28 43.08,25.53 73.98,44.18 92.63,55.78 33.93,20.76 64.36,40.22 91.02,58.76 18.81,13.66 37.66,26.87 56.39,39.98 7.14,4.53 15.09,9.34 23.97,14.54 8.68,5.16 15.62,9.05 20.55,11.75zm-306.86 12.24l-78.82 -49.29 -95.92 -63.25c5.91,17.32 11.74,34.31 17.46,51.38 4.24,12.22 10.69,29.47 19.14,51.51 9.62,25.23 15.55,40.74 17.71,46.2 5.89,14.76 12.36,30.21 19.51,46.43l44.98 -36.72 55.94 -46.26zm736.01 -405.25c2,27.61 3.99,54.91 5.75,82.14 2.29,15.31 4.57,27.87 6.79,37.68 2.23,9.81 5.59,22.42 10,38.08l-41.26 30.19c-1.42,0.83 -25.26,19.2 -71.38,55.35 -26.08,20.16 -53.1,38.47 -80.97,54.66 -24.11,14 -56.15,32.28 -96.07,54.93 -40.02,22.74 -67.4,38.28 -82.05,46.8l-22.6 -86.08 -15.49 -62.78 20.11 -15.85 -65 -130.09c-25.31,-43.56 -45.79,-80.05 -61.31,-109.71 -15.61,-29.6 -32.38,-64.42 -50.46,-104.22 -7.54,-17.13 -15.18,-35.05 -22.68,-54.27 -7.66,-19.14 -13.36,-33.16 -17.22,-42.19l44.96 -39.3c20.22,-15.05 40.49,-30.28 60.88,-45.95 18.08,-16.05 35.17,-32.91 51.04,-50.63 7.84,27.2 15.84,54.1 23.82,80.67 14.22,41.51 24.84,70.54 31.74,87.18 10.46,25.48 24.41,53.1 41.59,82.66 6.7,11.53 14.28,24.3 22.62,38.36 8.4,13.85 17.62,29.12 27.6,45.69 10.92,18.82 18.34,32.19 22.19,40.01 3.86,7.82 10.34,21.39 19.22,40.86 1.65,3.72 6.75,14.3 15.3,31.71 8.54,17.38 14.32,29.12 17.39,35.31 17.76,-10.32 30.66,-17.97 38.42,-22.85 38.66,-24.17 58.9,-36.8 60.59,-37.78 18.93,-11 37.28,-23.58 55.15,-37.58 4.16,-3.28 21.27,-17.74 51.33,-43zm803.3 -775.48c-4.35,17.31 -7.67,31.61 -9.92,43.19 -2.44,11.5 -4.38,25.18 -6.14,40.95 -2.4,18.41 -3.99,33.56 -4.84,45.26 -0.8,11.89 -0.97,26.55 -0.82,43.9l-130.8 30.06c4.5,19.57 10.51,57.13 18.32,112.57 3.89,27.57 8.04,51.07 12.48,70.36 10.58,46.03 17.98,92.95 22.34,140.71 4.38,47.92 8.73,95.7 13.12,143.6 -12.64,7.84 -25.94,16.27 -40,25.35 -9.8,6.26 -22.85,15.12 -39.34,26.44 -13.55,9.27 -25.23,17.34 -34.75,24.15 -14.16,10.63 -25.45,19.06 -33.94,25.02 -2.61,-32.78 -4.83,-56.44 -6.45,-70.99 -2.39,-25.01 -6.21,-48.41 -11.16,-69.9 -5.12,-22.37 -12.63,-63.72 -22.28,-123.8 -4.99,-30.4 -10.01,-56.34 -14.96,-77.8l-40.58 -176.69c-11.85,2.72 -26.95,6.64 -45.57,12.02 -18.66,5.19 -33.85,9.3 -45.54,12 -15.06,3.46 -29.69,8.04 -44.35,13.88 -14.52,5.78 -29.04,11.58 -43.4,17.35l9.16 -81.95 6.7 -76.02c31.12,-17.92 57.38,-31.49 79.02,-41.08 21.69,-9.44 47.33,-17.63 77.29,-24.53 20.46,-4.69 58.77,-9.35 115.22,-14.16 28.53,-2.4 52.63,-5.93 72.81,-10.56 25.13,-5.78 55.6,-17.1 91.44,-33.95 24.69,-11.66 43.67,-20.18 56.94,-25.38zm802.5 354.4c-2.75,92.17 -35.23,171.01 -97.77,236.37 -64.56,67.4 -141.13,99.78 -229.86,97.14 -101.18,-2.99 -180.13,-36.54 -236.73,-100.63 -52.7,-59.9 -77.58,-135.96 -74.85,-228.12 1.71,-57.86 18.81,-113.76 51.46,-167.55 30.13,-49.51 65.37,-85.07 105.49,-106.83l-11.83 -31.25c28.24,-11.77 57.33,-21.1 87.39,-27.87 35.77,-7.79 71.13,-11.23 106.34,-10.18 104.77,3.09 183.39,38.44 235.85,106.14 45.93,59.26 67.33,136.85 64.51,232.78zm-186.72 -7.19c1.2,-40.6 0.16,-71.39 -2.82,-92.35 -4.36,-29.52 -13.79,-55.76 -28.42,-78.69 -9.75,-15.13 -26.08,-25.82 -49.3,-32.21 -16.5,-4.53 -36.83,-7.09 -60.96,-7.81 -2.4,-0.07 -8.4,-0.1 -18.15,0.06 -9.77,0.17 -15.61,-0.01 -17.56,-0.52 -30.19,26.87 -52.77,60.1 -67.75,99.84 -12.22,32.65 -18.98,68.46 -20.14,107.42 -1.68,56.66 7.39,104.78 27.23,144.37 23.65,47.35 58.49,71.65 104.33,73 45.27,1.34 79.05,-19.72 101.79,-63.28 19.25,-36.79 29.88,-86.72 31.75,-149.83zm1002.54 198.31c-13.09,46.45 -30.56,84.69 -52.31,114.39 -21.77,29.7 -52.96,56.9 -93.66,81.89l44.61 103.23 -73.23 25.49 -64.16 19.78 -19.84 -56.69 -12.63 -42.03c-28.83,4.48 -55.63,6.13 -80.26,5.11 -24.59,-1.18 -50.48,-5.5 -77.62,-13.14 -86.02,-24.25 -150.47,-74.19 -193.15,-149.92 -42.69,-75.75 -52.31,-155.57 -28.68,-239.41 27.65,-98.16 84.93,-170.35 171.53,-216.21 84.17,-44.99 174.27,-54.03 270.12,-27.02 85.43,24.07 147.89,74.99 187.54,152.68 38.6,75.85 45.81,156.4 21.74,241.85zm-175.62 -40.16c15.09,-53.53 18.62,-100.36 10.69,-140.29 -10.93,-54.65 -43.04,-89.4 -96.14,-104.37 -46.77,-13.17 -90.37,-1.62 -130.87,34.81 -36.37,32.89 -62.21,76.56 -77.51,130.82 -15.53,55.14 -18.29,103.59 -8.38,145.33 12.18,50.79 41.92,82.84 89.27,96.19 12.43,3.5 22.72,5.61 30.95,6.22 8.11,0.57 18.86,0 31.82,-1.78l-8.37 -30.57c-1.82,-5.17 -3.99,-10.16 -6.35,-15.01 -4.26,-8.69 -6.83,-13.93 -7.67,-15.4 16.04,-2.19 28.36,-3.86 36.81,-5.07 8.38,-1.05 20.36,-3.15 35.82,-6.1 15.48,-2.97 26.94,-5.5 34.69,-7.51 2.62,-0.52 13.97,-3.72 33.93,-9.31 7.95,-13.32 13.67,-24.81 17.5,-34.47 3.77,-9.54 8.36,-24.14 13.81,-43.49zm910.26 204.42c-4.28,9.65 -11.58,23.29 -21.94,41.02 -21.67,37.01 -45.61,71.98 -71.99,105.18 -35.78,45.09 -71.85,81.48 -108.22,109.18 -45.89,35.35 -91.58,57.26 -137.15,65.69 -51.29,9.23 -77.89,13.98 -79.9,14.19 -26.17,3.44 -50.05,2.68 -71.66,-1.97 -26.94,-5.89 -56.9,-18.55 -89.89,-37.87 -52.93,-30.98 -84.32,-68.47 -94.06,-112.4 -7.97,-35.94 -1.52,-78.73 18.96,-128.26 11.22,-27.15 34.07,-70.05 68.53,-128.94 7.73,-13.18 35.5,-52.01 83.52,-116.52 23.89,-32.22 42.81,-60.07 56.44,-83.37l33.03 -56.42c6.56,2.48 17.86,6.29 33.92,11.52 23.23,7.52 41.91,13.6 56.13,18.11l90.31 25.59c-15.46,26.38 -28.27,47.38 -38.31,63.05 -35.48,54.97 -57.55,90.01 -66.28,104.89 -19.38,33.14 -40.3,67.1 -62.69,101.77 -22.6,34.73 -45.82,70.84 -70.05,108.08 -17.5,29.89 -26.05,52.5 -25.6,68.07 0.52,15.43 11.69,29.61 33.55,42.4 29.26,17.13 60.4,15.55 93.81,-4.69 27.15,-16.42 56.51,-45.79 87.94,-88.21 22.06,-29.65 46.77,-68.01 74.34,-115.12 11.21,-19.14 20.69,-37.4 28.62,-54.83 20.32,-45.08 33.43,-72.52 39.18,-82.35l28.67 -52.53 93.45 16.65c15.59,3.05 31.32,6.17 47.59,9.26 16.17,3.22 31.62,6.53 46.44,9.98 -26.74,45.69 -52.25,95.21 -76.69,148.85zm649.48 360.42c-14.69,2.8 -27.66,5.49 -38.95,8.06 -11.17,2.65 -23.37,6.01 -36.57,10.09 -17.57,5.05 -33.27,9.97 -47.15,14.63 -13.81,4.54 -28.68,10.37 -44.75,17.32 -20.55,-13.33 -36.7,-24.23 -48.63,-32.9 -11.91,-8.67 -26.88,-20.72 -44.5,-35.87 -3.41,-2.91 -6.02,-5.16 -7.84,-6.73 -2.74,-2.35 -4.9,-4.21 -6.37,-5.48 -2.51,-2.14 -4.22,-3.6 -5.13,-4.39 -5.45,-4.69 -11.05,-9.91 -16.68,-15.33 -5.61,-5.42 -11.74,-11.87 -18.04,-19.26l-96.51 89.09c12.51,10.74 24.6,20.13 36.37,28.07 16.52,10.44 29.51,19.04 39.26,25.64l51.72 34.14c-10.83,4.54 -25.03,10.73 -42.62,18.54 -17.5,7.71 -33.23,14.97 -46.96,21.73l-59.59 28.66 -70.63 -60.7 -22.97 23.97c-4.78,5.57 -9.24,10.05 -13.33,13.67 -13.94,12.32 -21.72,19.29 -23.37,21.23 -3.73,4.32 -7.44,8.64 -11.14,12.95 -3.82,4.44 -7.53,8.76 -11.25,13.08 18.75,12.95 37.71,27.68 57.05,44.28 7.98,6.86 17.72,16.4 29.41,28.83 11.68,12.4 21.56,22.08 29.51,28.92 11.6,9.97 33.44,25.75 65.39,47.47 16.13,10.9 28.98,20.55 38.41,28.67 -9.59,2.43 -16.37,4.11 -20.26,4.93 -7.59,2.18 -14.31,3.32 -19.89,3.86 -17.92,2.19 -31.08,3.93 -39.59,5.11 -8.54,1.19 -17.19,3.22 -25.83,5.9 -11.78,3.13 -23.21,6.74 -34.19,10.57 -11.08,3.9 -21.79,8.54 -32.33,13.93 -12.51,-10.75 -36.29,-28.64 -71.35,-53.41 -17.53,-12.5 -32.2,-23.73 -44.15,-33.98 -16.6,-14.27 -30.42,-26.72 -41.55,-37.68 -11.04,-10.87 -36.82,-36.99 -77.19,-78.59l-41.08 -43.99 -30.84 -33.83c27.57,-13.47 53.51,-24.79 77.7,-33.84 3.95,-1.36 14.75,-4.72 32.64,-10.13 9.55,-3.05 18.15,-5.94 26,-8.88 4.89,-5.9 8.67,-10.54 11.62,-13.95 2.92,-3.41 5.17,-5.81 6.96,-7.66 4.2,-4.88 8.22,-9.34 12.05,-13.57 3.72,-4.11 9.29,-9.2 16.37,-15.37 7.21,-6.08 14.52,-12.06 22.16,-17.74 5.57,-6.48 9.29,-11.97 11.53,-16.4l-44.16 -46.84c8.8,-2.91 18.45,-6.08 28.85,-9.42 10.26,-3.44 19.72,-6.16 28.18,-8.19 8.35,-2.13 17.99,-4.14 28.68,-6 10.7,-2.09 21.63,-3.54 32.71,-4.71l44.88 -47.63c5.77,-6.72 14.21,-14.69 25.2,-23.82 11.02,-9.11 19.57,-16.99 25.34,-23.71l18.63 -26.29 -77.03 -49.78 73.55 -18.64 65.46 -15.91c29.13,18.1 58.46,36.18 87.83,54.69 14.67,12.62 29.32,26.17 43.82,40.83 36.26,36.48 59.33,58.86 69.1,67.26 29.68,25.52 56.21,45.74 79.67,60.55 23.22,14.83 55.42,32.81 96.37,53.95z"/>
  <g id="_1894026172192">
   <path class="fil0" d="M8626.74 15670.72c-55.53,14.53 -107.66,6.36 -156.33,-24.43 -47.61,-30.22 -79.81,-73.89 -96.67,-131.18 -6.87,-23.35 -11.92,-42.49 -15.06,-57.45 -3.14,-14.97 -5.18,-31.02 -6.15,-48.06 22.39,4.38 38.15,7 47.29,7.79 9.25,0.83 18.99,1.04 29.22,0.67 2.91,-0.12 16.27,-2.44 40.1,-6.93 23.8,-4.55 49.75,-9.84 77.99,-15.96 28.15,-6.1 54.19,-12.29 77.93,-18.5l-31.56 -61.15c9.16,5.95 17.17,10.91 24.04,14.81 6.82,4.01 15.16,8.64 25.12,13.9 14.33,7.82 28.36,14.85 42.27,21.28 10.56,19.86 18.43,36.03 23.48,48.59 5.05,12.55 10.08,27.34 15.09,44.37 9.62,32.68 14.06,61.5 13.24,86.46 -1.01,30.55 -9.36,55.9 -25.2,76.07 -18.12,23.07 -46.37,39.66 -84.8,49.72zm-36.98 -92.78c26.24,-6.87 45.53,-19.62 57.97,-38.19 13.67,-20.47 16.26,-45.1 7.74,-74.03l-212.4 43.14c9.21,31.29 26.64,53.07 52.21,65.33 25.59,12.33 57.08,13.53 94.48,3.75zm312.37 309.06c-7.73,-2.2 -14.61,-4.08 -20.66,-5.57 -6.03,-1.46 -12.71,-2.8 -20.05,-4.08 -9.69,-1.88 -18.42,-3.38 -26.26,-4.54 -7.74,-1.21 -16.32,-2.12 -25.75,-2.77 -6.51,-10.89 -11.51,-19.62 -15.06,-26.35 -3.53,-6.72 -7.65,-15.71 -12.3,-26.71 -0.9,-2.14 -1.6,-3.78 -2.07,-4.9 -0.72,-1.71 -1.28,-3.05 -1.69,-3.97 -0.65,-1.58 -1.1,-2.66 -1.34,-3.21 -1.44,-3.41 -2.81,-7.1 -4.15,-10.87 -1.33,-3.78 -2.65,-8.13 -3.81,-12.97l-68.54 17.41c3.3,7.8 6.71,14.92 10.37,21.28 5.29,8.63 9.36,15.58 12.38,20.86l16.17 27.64c-6.31,-0.51 -14.67,-1.06 -25.03,-1.7 -10.33,-0.67 -19.65,-1.1 -27.95,-1.29l-35.73 -1.15 -18.6 -44.1 -17 5.39c-3.69,1.38 -6.95,2.35 -9.81,3.02 -9.76,2.27 -15.24,3.58 -16.52,4.07 -2.86,1.06 -5.72,2.13 -8.59,3.2 -2.92,1.1 -5.8,2.19 -8.66,3.25 5.74,10.29 11.13,21.42 16.24,33.48 2.08,4.99 4.36,11.62 6.83,19.98 2.49,8.37 4.78,15.05 6.89,20.03 3.05,7.24 9.56,19.53 19.4,36.88 5.01,8.74 8.73,16.14 11.22,22.03 -5.2,-1.15 -8.86,-2.01 -10.93,-2.55 -4.19,-0.82 -7.69,-1.89 -10.5,-2.98 -9.14,-3.23 -15.88,-5.55 -20.25,-7.04 -4.38,-1.48 -9.04,-2.61 -13.83,-3.44 -6.44,-1.38 -12.81,-2.43 -19.02,-3.31 -6.3,-0.85 -12.58,-1.3 -18.98,-1.36 -3.29,-7.82 -10.22,-21.49 -20.79,-40.99 -5.26,-9.78 -9.46,-18.32 -12.6,-25.76 -4.4,-10.37 -7.88,-19.26 -10.46,-26.84 -2.56,-7.53 -8.39,-25.42 -17.28,-53.75l-8.62 -29.58 -6.3 -22.56c16.58,0.45 31.84,1.47 45.71,3.11 2.22,0.31 8.24,1.34 18.16,3.13 5.33,0.86 10.18,1.59 14.68,2.14 3.82,-1.51 6.79,-2.71 9.06,-3.56 2.25,-0.86 3.93,-1.4 5.24,-1.8 3.25,-1.22 6.29,-2.28 9.18,-3.27 2.83,-1 6.76,-1.97 11.7,-3.07 4.98,-1.06 9.98,-2.03 15.05,-2.79 4.3,-1.61 7.47,-3.22 9.63,-4.68l-9.39 -31.6c4.94,0.8 10.36,1.62 16.17,2.58 5.77,0.87 10.99,1.89 15.57,2.97 4.51,1.02 9.63,2.39 15.22,4.07 5.66,1.58 11.26,3.52 16.84,5.6l33.46 -10.89c4.44,-1.67 10.47,-3.27 18.02,-4.79 7.57,-1.52 13.64,-3.06 18.08,-4.72l15.52 -7.48 -24.4 -40.68 39.89 8.97 35.33 8.31c9.4,15.04 18.93,30.15 28.36,45.44 3.86,9.18 7.46,18.75 10.73,28.79 8.23,25.04 13.64,40.62 16.22,46.73 7.82,18.53 15.46,33.91 22.96,46.16 7.42,12.18 18.33,27.92 32.64,47.15zm-106.39 335.12c-14.93,1.12 -29.67,2.2 -44.39,3.22 -8.27,1.22 -15.04,2.41 -20.33,3.6 -5.29,1.15 -12.1,2.9 -20.56,5.21l-16.47 -20.91c-0.45,-0.73 -10.46,-12.82 -30.19,-36.18 -10.99,-13.22 -20.97,-26.93 -29.84,-41.08 -7.67,-12.26 -17.66,-28.51 -30.05,-48.76 -12.44,-20.33 -20.94,-34.23 -25.61,-41.68l46.45 -11.81 33.87 -8.1 8.63 10.17 70.08 -33.57c23.46,-13.06 43.09,-23.62 59.08,-31.64 15.93,-8.07 34.72,-16.74 56.13,-26.11 9.24,-3.89 18.92,-7.85 29.26,-11.74 10.32,-3.97 17.87,-6.94 22.74,-8.93l21.42 22.79c8.21,10.24 16.52,20.54 25.05,30.86 8.76,9.16 17.94,17.81 27.57,25.84 -14.67,4.08 -29.18,8.24 -43.5,12.42 -22.39,7.41 -38.05,12.92 -47.01,16.48 -13.73,5.43 -28.61,12.63 -44.52,21.5 -6.23,3.45 -13.09,7.35 -20.66,11.65 -7.45,4.34 -15.68,9.09 -24.61,14.24 -10.11,5.63 -17.32,9.46 -21.53,11.46 -4.22,1.98 -11.52,5.33 -22.02,9.93 -1.99,0.85 -7.68,3.49 -17.07,7.91 -9.38,4.42 -15.7,7.4 -19.03,9 5.66,9.01 9.84,15.55 12.49,19.49 13.21,19.62 20.13,29.88 20.65,30.75 6.03,9.6 12.88,18.91 20.52,27.97 1.8,2.13 9.67,10.78 23.45,26.02zm330.66 -35.11c-11.34,4.92 -21.81,9.5 -31.37,13.99 -9.53,4.35 -19.75,10.2 -30.58,17.48 -3.77,2.54 -11.05,6.71 -21.98,12.53 -10.85,5.81 -19.53,10.9 -25.92,15.21l-34.9 22.46 -151.19 101.76c-8.94,-7.6 -17.09,-14.14 -24.39,-19.45 -7.25,-5.35 -16.57,-11.77 -27.89,-19.35 -5.56,-3.77 -11.04,-7.33 -16.45,-10.53 -3.86,-2.21 -9.59,-5.57 -17.22,-10l49.35 -28.73c10.68,-7.18 30.91,-18.24 60.5,-33.2 14.99,-7.55 27.29,-14.59 37.04,-21.18l98.31 -66.16c10.81,-7.28 21.18,-13.6 31.01,-19.01 13.47,-6.7 24.16,-12.3 32.34,-16.77 3.9,5.17 7.34,9.33 10.21,12.47 2.95,3.08 5.53,5.85 7.96,8.27 8.12,8.23 19,16.68 32.75,25.36 10.16,6.59 17.65,11.49 22.42,14.85zm214.87 267.56c-13.82,3.79 -23.7,6.53 -29.75,8.11 -10.59,2.91 -20.18,6.21 -28.88,9.92 -31.44,13.2 -60.07,24.43 -86.07,33.74 -28.38,10.22 -61.16,20.9 -98.43,32.13 -37.19,11.21 -77,21.89 -119.45,32.12l-33.75 -21.55 -33.61 -22.8c16.08,-22.39 32.28,-44.83 48.66,-67.21 10.03,-14.94 18.95,-28.97 26.65,-42.24 7.78,-13.28 15.46,-26.44 23.19,-39.42 10.09,-16.78 19.13,-30.91 27.16,-42.63 14,-19.95 24.35,-34.53 30.95,-43.58 8.86,-11.77 19.91,-25.82 33.15,-42.25 4.11,4.53 7.75,8.43 10.99,11.67 3.24,3.2 9.46,8.87 18.68,16.81 13.18,10.98 28.3,21.53 45.46,31.52 -3.38,3.54 -6.79,7.09 -10.05,10.53 -3.34,3.5 -6.6,7.31 -9.94,11.62 -5.54,7.19 -10.68,15.98 -15.58,26.47 -6.36,13.77 -11.05,23.1 -13.89,27.82 -10.22,17.17 -22.41,35.36 -36.53,54.6 -8.68,11.95 -17.1,23.25 -25.11,34.04 30.77,-12.87 61.01,-24.68 90.62,-35.3 18.62,-7 36.46,-13.23 53.28,-18.64 12.54,-4.18 30.59,-9.8 54.05,-16.86l33.71 22.69 44.49 28.69zm206.39 196.5c-7.99,1.03 -15.08,2.03 -21.25,3.02 -6.11,1.03 -12.78,2.42 -20.03,4.13 -9.64,2.07 -18.26,4.14 -25.89,6.12 -7.58,1.92 -15.79,4.49 -24.65,7.55 -10.71,-7.35 -19.11,-13.34 -25.29,-18.08 -6.17,-4.75 -13.88,-11.3 -22.96,-19.5 -1.75,-1.6 -3.09,-2.81 -4.03,-3.66 -1.4,-1.27 -2.52,-2.26 -3.26,-2.96 -1.3,-1.17 -2.18,-1.96 -2.65,-2.37 -2.81,-2.55 -5.66,-5.36 -8.55,-8.27 -2.88,-2.93 -5.98,-6.37 -9.16,-10.31l-54.73 42.63c6.44,5.81 12.68,10.95 18.8,15.31 8.61,5.78 15.36,10.51 20.42,14.14l26.88 18.83c-5.95,1.99 -13.8,4.75 -23.53,8.23 -9.67,3.44 -18.36,6.69 -25.99,9.76l-33.02 12.93 -36.33 -32.87 -13.09 11.55c-2.76,2.7 -5.29,4.86 -7.6,6.59 -7.89,5.88 -12.29,9.2 -13.25,10.16 -2.13,2.08 -4.25,4.17 -6.39,6.27 -2.19,2.14 -4.32,4.26 -6.45,6.34 9.72,7.12 19.54,15.13 29.47,24.13 4.1,3.71 9.09,8.85 15.02,15.49 5.94,6.64 10.97,11.83 15.07,15.55 5.96,5.39 17.28,14.03 33.89,25.98 8.37,6 15.02,11.26 19.89,15.65 -5.27,0.98 -8.98,1.64 -11.08,1.97 -4.18,0.88 -7.83,1.26 -10.86,1.38 -9.74,0.63 -16.89,1.15 -21.52,1.51 -4.65,0.37 -9.38,1.14 -14.12,2.28 -6.45,1.25 -12.72,2.8 -18.77,4.42 -6.09,1.68 -12,3.74 -17.84,6.18 -6.43,-5.82 -18.75,-15.56 -36.95,-29.16 -9.07,-6.85 -16.67,-12.98 -22.81,-18.53 -8.55,-7.73 -15.64,-14.45 -21.31,-20.33 -5.65,-5.86 -18.8,-19.86 -39.34,-42.16l-20.87 -23.54 -15.65 -18.07c15.28,-6.09 29.64,-11.11 42.96,-15.04 2.16,-0.6 8.08,-2.02 17.9,-4.26 5.24,-1.29 9.98,-2.52 14.31,-3.79 2.8,-2.86 4.99,-5.12 6.68,-6.77 1.66,-1.67 2.96,-2.82 3.97,-3.71 2.43,-2.37 4.73,-4.53 6.91,-6.56 2.13,-1.99 5.29,-4.42 9.3,-7.36 4.07,-2.91 8.19,-5.74 12.48,-8.43 3.2,-3.14 5.38,-5.83 6.72,-8.01l-22.46 -25.08c4.85,-1.22 10.14,-2.58 15.84,-3.98 5.65,-1.46 10.85,-2.59 15.47,-3.39 4.55,-0.82 9.83,-1.6 15.65,-2.24 5.84,-0.77 11.8,-1.22 17.8,-1.49l25.65 -22.98c3.3,-3.26 8.1,-7.08 14.3,-11.41 6.21,-4.35 11.06,-8.12 14.37,-11.38l10.83 -12.85 -40.1 -27.48 40.25 -7.45 35.82 -6.24c15.18,10.01 30.47,20.02 45.79,30.28 7.53,6.81 15.02,14.13 22.41,22 18.5,19.57 30.28,31.62 35.32,36.16 15.26,13.81 28.98,24.83 41.18,33.04 12.11,8.19 28.96,18.24 50.43,30.13zm36.48 461.3c-8.49,-5.75 -16.4,-11.76 -23.65,-18.09 -9,-8.52 -16.34,-15.29 -22.02,-20.29 -8.56,-8.04 -14.89,-14.03 -18.7,-17.98 -3.86,-3.96 -9.33,-10.04 -16.42,-18.33l7.88 -95.52 5.87 -68.64c-10.47,8.95 -20.84,17.86 -31.08,26.93 -9.78,9.33 -17.54,17.44 -23.39,24.3 -5.72,6.85 -13.7,16.98 -23.76,30.4 -4.72,-0.06 -11.45,0.03 -20.33,0.49 -13.22,0.44 -24.14,-0.09 -32.69,-1.78 -10.9,-2.29 -20.21,-4.84 -27.85,-7.77 -7.69,-2.98 -15.69,-7.27 -24.03,-12.81 20.64,-16.96 41.36,-33.87 62.11,-50.82 7.98,-8.27 15.09,-16.04 21.27,-23.37 6.17,-7.28 13.53,-16.71 22.09,-28.14l74.5 -101c-3.81,-2.07 -7.59,-4.03 -11.27,-6.01 -3.8,-1.97 -7.7,-3.65 -11.86,-4.83l-31.29 -9.52c16.1,-5.45 30.96,-11.38 44.7,-17.93 9.2,-4.45 16.6,-8.24 22.13,-11.37 7.24,-3.97 14.34,-8.31 21.36,-13l22.76 12.91c10.53,7.02 31.16,17.51 61.86,31.39 15.38,6.97 28.21,13.83 38.53,20.72 32.63,21.74 52.87,45.32 60.6,70.76 7.79,25.5 2.75,50.12 -15.16,74.03 -14.09,18.79 -31.31,31.84 -51.46,39.01 -20.21,7.19 -41.67,7.79 -64.36,1.77 -3.04,16.1 -5.39,30.64 -7.04,43.58 -1.29,9.52 -2.79,24.23 -4.67,44.33 -1.8,20.03 -3.01,37.68 -3.72,52.81 -0.69,15.08 -0.97,33.06 -0.91,53.77zm52.27 -274.91c8.71,-11.62 11.9,-23.14 9.53,-34.55 -2.35,-11.4 -9.01,-20.8 -20.08,-28.17 -5.49,-3.65 -9.74,-6.19 -12.72,-7.52 -2.98,-1.33 -7.13,-2.53 -12.5,-3.58l-27.79 37.09c-6.69,8.92 -12.6,16.4 -17.54,22.36 -17.46,20.76 -27.13,32.47 -29.14,35.17 16.59,8.04 35.29,10.76 56.17,8.2 23.82,-3.04 41.87,-12.7 54.07,-29zm395.57 96.92c-18.34,13.27 -31.32,22.76 -39.13,28.38 -14,9.9 -27.2,18.48 -39.66,25.6 -17.39,9.74 -33.64,19.29 -48.66,28.73 -15.02,9.4 -27.78,17.62 -38.19,24.71 -26.04,17.55 -40.1,27.07 -42.26,28.44 -10.25,13.39 -20.39,26.73 -30.39,40 -4.82,5.68 -9.51,11.15 -14.13,16.48 -4.69,5.29 -10.87,11.96 -18.65,20l-61.19 -5.79 -56.3 -6.38c6.3,-6.36 10.98,-11.2 14.29,-14.43 3.27,-3.32 7.64,-7.03 12.97,-11.26 9.37,-7.7 16.96,-14.67 22.85,-20.99 9.78,-10.54 19.38,-23.29 28.74,-38.41 3.06,-4.96 9.78,-13.84 20.22,-26.65 5.28,-6.4 9.41,-12.17 12.6,-17.34 1.31,-31.38 2.56,-62.81 3.77,-94.19 1.52,-15.79 3.3,-30.82 5.28,-44.94 2.04,-14.09 4.67,-28.77 7.82,-44.2 13.24,5.16 26.77,9.07 40.59,11.63 8.77,1.73 16.33,2.86 22.66,3.42 6.34,0.48 14.25,0.76 23.62,0.62 -2.06,11.52 -3.83,23.2 -5.33,35.01 -1.08,8.27 -2.39,19.95 -3.94,35.02 -1.95,19.97 -3.2,40.36 -3.75,61.29 6.36,-2.25 16.4,-8.16 29.88,-17.83 6.96,-5.02 13.96,-10.1 21.14,-15.17l44.9 -32.12c7.91,4.38 14.87,7.85 21.02,10.34 6.11,2.56 10.92,4.5 14.34,5.93 10.25,3.78 18.62,6.46 25.12,8.07 6.4,1.67 16.33,3.66 29.77,6.03zm394.23 322.81c-19.15,51.24 -56.11,86.86 -110.75,106.84 -53.54,19.5 -109.96,19.38 -169.42,-0.38 -24.23,-8.06 -43.77,-15.11 -58.58,-21.24 -14.8,-6.14 -29.92,-13.77 -45.29,-22.76 16.64,-14.81 27.91,-25.49 33.84,-32.11 6,-6.66 11.78,-14.08 17.31,-22.2 1.56,-2.32 7.19,-13.97 16.95,-34.96 9.65,-21.03 19.93,-44.11 30.75,-69.43 10.83,-25.25 20.36,-48.92 28.54,-70.83l-71.22 -10.62c10.41,-3.68 19.3,-7.03 26.63,-10.11 7.39,-2.98 16.2,-6.76 26.47,-11.46 15.02,-6.61 29.16,-13.42 42.71,-20.51 23.31,3.22 41.87,6.41 55.69,9.7 13.81,3.28 29.56,7.86 47.22,13.73 33.92,11.28 61.53,24.36 82.76,39.27 25.99,18.29 43.26,39.26 51.72,63.06 9.69,27.18 7.93,58.54 -5.33,94.01zm-101.85 -24.54c9.04,-24.22 9,-46.44 -0.01,-66.7 -9.97,-22.27 -29.9,-38.38 -59.94,-48.36l-84.11 188.91c32.5,10.78 61.41,9.78 86.7,-2.97 25.38,-12.7 44.45,-36.36 57.36,-70.88zm446.63 -66.39c-6.31,4.75 -11.85,9.03 -16.62,12.84 -4.69,3.84 -9.66,8.27 -14.95,13.23 -7.15,6.43 -13.44,12.36 -18.92,17.75 -5.47,5.32 -11.14,11.47 -17.08,18.4 -13.2,-1.16 -23.66,-2.25 -31.53,-3.34 -7.9,-1.1 -18.09,-3.01 -30.32,-5.67 -2.38,-0.52 -4.18,-0.91 -5.45,-1.19 -1.89,-0.41 -3.39,-0.75 -4.41,-0.97 -1.75,-0.38 -2.93,-0.64 -3.57,-0.76 -3.78,-0.84 -7.78,-1.86 -11.83,-2.98 -4.05,-1.12 -8.59,-2.58 -13.46,-4.44l-23.86 63.05c8.68,1.89 16.83,3.29 24.44,4.08 10.54,0.82 18.92,1.61 25.23,2.28l33.33 3.2c-4.05,4.6 -9.29,10.76 -15.75,18.44 -6.44,7.61 -12.14,14.6 -17.04,20.91l-21.33 27.05 -49.05 -10.69 -4.99 16.23c-0.89,3.65 -1.89,6.73 -2.95,9.34 -3.59,8.86 -5.57,13.84 -5.87,15.12 -0.68,2.81 -1.38,5.63 -2.08,8.47 -0.72,2.89 -1.4,5.74 -2.09,8.57 12.22,1.4 24.99,3.57 38.42,6.49 5.52,1.21 12.6,3.22 21.29,6.07 8.73,2.83 15.87,4.87 21.39,6.06 8.08,1.77 22.48,3.72 43.21,5.97 10.47,1.12 19.05,2.41 25.61,3.84 -4,3.38 -6.81,5.74 -8.46,7.03 -3.1,2.79 -6.02,4.89 -8.57,6.45 -8.03,5.23 -13.88,9.13 -17.68,11.68 -3.78,2.55 -7.43,5.51 -10.89,8.76 -4.85,4.2 -9.39,8.55 -13.71,12.87 -4.32,4.39 -8.29,9.01 -11.98,13.91 -8.68,-1.88 -24.56,-4.32 -47.56,-7.21 -11.54,-1.5 -21.37,-3.1 -29.67,-4.92 -11.54,-2.5 -21.27,-4.85 -29.34,-7.16 -8.01,-2.31 -26.93,-7.98 -56.68,-17.23l-30.71 -10.13 -23.26 -7.97c9.83,-12.63 19.42,-23.86 28.73,-33.68 1.55,-1.53 5.87,-5.61 13.08,-12.28 3.81,-3.64 7.21,-6.99 10.23,-10.16 0.86,-3.83 1.5,-6.82 2.04,-9.04 0.55,-2.25 1.04,-3.86 1.41,-5.11 0.79,-3.21 1.61,-6.17 2.39,-8.97 0.74,-2.76 2.14,-6.37 3.97,-10.83 1.93,-4.44 3.94,-8.88 6.16,-13.24 1.04,-4.26 1.46,-7.63 1.41,-10.13l-32.9 -10.71c3.5,-3.39 7.31,-7.1 11.45,-11.08 4.04,-3.98 7.9,-7.45 11.44,-10.35 3.47,-2.93 7.57,-6.12 12.23,-9.49 4.59,-3.48 9.47,-6.73 14.48,-9.87l9.55 -32.13c1.08,-4.4 3.12,-10 6.1,-16.7 2.97,-6.73 5.1,-12.32 6.17,-16.71l2.32 -16.28 -49.37 -4.25 30.53 -25.81 27.38 -22.67c18.47,1.28 37.05,2.51 55.76,3.92 10.19,2.22 20.6,4.89 31.22,8.07 26.5,7.9 43.18,12.54 49.97,14.03 20.6,4.5 38.37,7.35 53.33,8.49 14.83,1.2 34.76,1.7 59.66,1.55zm396.47 279.16c-4.63,12.32 -9.01,25.95 -13.24,40.74 -1.92,6.65 -3.5,12.66 -4.66,17.96 -1.15,5.26 -2.4,10.95 -3.65,17.04 -9.77,3.44 -22.91,5.72 -39.58,6.97 -16.6,1.27 -34.18,1.56 -52.66,1 -45.14,-1.36 -84.04,-18.37 -116.75,-51 -33.33,-33.28 -49.21,-71.76 -47.72,-115.53 1.7,-49.49 20.96,-91.66 57.91,-126.48 37.86,-35.64 82.89,-52.7 134.97,-51.12 19.13,0.57 33.38,1.31 42.59,2.2 9.2,0.88 20,3.22 32.36,6.89 -0.32,9.75 -0.5,17.17 -0.43,22.07 0,4.97 0.42,11.63 1.25,20.06 1.45,15.26 4.08,30.72 7.93,46.43 -14.18,-7.61 -25.68,-13 -34.48,-16.1 -12.5,-4.51 -25.31,-6.97 -38.37,-7.36 -25.03,-0.76 -46.98,8.37 -65.88,27.45 -18.9,19.08 -28.75,41.41 -29.63,67.07 -0.96,28.57 5.48,51.55 19.23,69.02 15.95,20.22 40.23,30.81 72.9,31.79 14.41,0.43 25.44,0.24 33.09,-0.6 7.64,-0.83 22.6,-3.68 44.82,-8.5zm373.2 -112.59c3.8,46.87 -9.17,88.59 -39.05,125.07 -30.86,37.64 -70.17,58.16 -118.01,61.61 -54.55,3.91 -98.92,-8.84 -133,-38.25 -31.74,-27.54 -49.46,-64.74 -53.26,-111.6 -2.38,-29.43 3.63,-58.67 18.1,-87.7 13.37,-26.7 30.31,-46.62 50.61,-59.81l-8.15 -15.21c14.52,-7.49 29.61,-13.78 45.39,-18.83 18.78,-5.87 37.59,-9.51 56.58,-10.88 56.5,-4.07 100.78,9.62 132.83,41.1 28.08,27.56 44.01,65.73 47.96,114.5zm-100.76 6.42c-1.67,-20.64 -4.01,-36.21 -6.79,-46.65 -4.05,-14.73 -10.59,-27.54 -19.78,-38.37 -6.11,-7.15 -15.49,-11.68 -28.33,-13.67 -9.13,-1.42 -20.2,-1.61 -33.22,-0.67 -1.29,0.1 -4.53,0.4 -9.75,1 -5.23,0.61 -8.4,0.84 -9.46,0.68 -14.7,15.24 -24.95,33.3 -30.71,54.26 -4.73,17.2 -6.3,35.7 -4.7,55.53 2.33,28.81 9.94,52.71 22.85,71.7 15.43,22.72 35.54,33.17 60.28,31.39 24.4,-1.76 41.35,-14.26 51.1,-37.57 8.23,-19.66 11.1,-45.56 8.51,-77.63zm547.38 37.3c-13.9,8.1 -27.69,16.23 -41.36,24.26 -12.69,8.52 -25.34,18.29 -38.09,29.34 -15.24,-34.63 -30.56,-69.24 -45.89,-103.92 -6.88,-18.72 -12.12,-33.6 -15.71,-44.64 -3.65,-11.05 -7.27,-23.99 -10.94,-38.8 -2.25,4.72 -5.15,13.84 -8.89,27.3 -3.74,13.47 -7.45,27.07 -11.2,40.77 -5.36,19.08 -10.47,35.75 -15.22,49.81 -5.65,16.87 -11.37,31.38 -17.13,43.48 -5.72,12.16 -13.2,25.58 -22.55,40.29 -12.47,-25.76 -24.9,-51.5 -37.27,-77.19 -3.14,-5.27 -6,-10.13 -8.68,-14.57 -9.16,-14.46 -14.36,-22.72 -15.57,-24.88 -1.2,-2.19 -4.11,-7.53 -8.66,-16.17 -4.62,-8.54 -8.36,-15.57 -11.29,-21.06 -1.36,7.93 -2.57,19.89 -3.53,35.87 -1,19.45 -1.9,32.92 -2.79,40.48 -2.52,21.44 -4.87,42.83 -7.24,64.21 -0.3,6.83 -0.46,13.54 -0.39,20.26 -0.09,10.38 0.38,21.36 1.51,32.93 -12.95,-3.48 -26.31,-5.72 -39.96,-6.73 -5.01,-0.37 -10.37,-0.52 -16.08,-0.37 -5.64,0.06 -10.75,0.25 -15.08,0.57 -0.33,-18.44 -0.82,-37.57 -1.3,-57.3 -0.54,-19.68 -0.89,-35.51 -1.19,-47.47 -0.24,-20.83 -0.22,-39.19 0.09,-55.11 0.71,-20.01 1.89,-39.03 3.62,-57.3 1.8,-18.22 3.63,-36.05 5.54,-53.58 2.08,-21.55 3.08,-39.92 3.17,-55.08 4.89,-1.07 8.7,-2.24 11.37,-3.46 2.78,-1.23 5.39,-2.51 7.98,-3.71 13.52,-5.25 26.91,-12.03 40.36,-20.27 8.54,9.98 16.33,19.57 23.63,28.87 7.22,9.32 14.71,19.75 22.49,31.31 9.23,13.8 17.29,26.47 24.23,38.05 6.87,11.59 13.96,24.73 21.17,39.37 6.18,-21.05 10.71,-36.75 13.46,-47.08 3.49,-13.17 7.27,-29.14 11.41,-47.77 2.93,-12.66 4.81,-21.55 5.79,-26.65 1.46,-6.83 3.13,-15.92 5.02,-27.07 4.98,-1.73 9.28,-3.24 12.9,-4.41 3.59,-1.27 6.44,-2.28 8.46,-3.12 19.32,-7.71 37.49,-17.35 54.23,-29.13 1.99,8.03 4.12,17.29 6.36,27.79 2.28,10.5 3.55,16.33 3.86,17.52 1.33,5.44 5.07,15.13 11.14,29.25 6.08,14.05 12.98,29.87 20.89,47.28 11.82,25.96 19.37,42.98 22.8,51.1l54.53 126.73zm47.38 -369.87c1.71,11.63 3.35,22.4 5.12,32.34 1.64,9.87 4.63,20.78 8.89,32.66 1.48,4.13 3.61,11.92 6.36,23.46 2.75,11.47 5.41,20.78 7.93,27.81l12.69 37.98 59.56 165.93c-10.32,5.87 -19.3,11.3 -26.81,16.38 -7.55,4.98 -16.74,11.54 -27.73,19.57 -5.42,3.91 -10.62,7.82 -15.43,11.78 -3.35,2.85 -8.43,7.03 -15.14,12.65l-14.88 -52.86c-4.2,-11.72 -9.59,-33.17 -16.2,-64.21 -3.34,-15.72 -6.93,-28.85 -10.75,-39.56l-38.73 -107.87c-4.26,-11.87 -7.67,-23.06 -10.32,-33.5 -2.92,-14.07 -5.51,-25.36 -7.67,-34.03 6.37,-2.03 11.6,-3.92 15.61,-5.62 3.99,-1.75 7.55,-3.29 10.69,-4.78 10.71,-4.94 22.45,-12.32 35.24,-22.21 9.62,-7.27 16.79,-12.61 21.57,-15.92zm413.07 9.15c26.01,48.48 27.75,98.27 5.26,149.33 -22.09,49.93 -61.19,88.27 -117.46,115.11 -22.92,10.91 -41.85,19.34 -56.79,25.2 -14.94,5.82 -31.24,10.86 -48.75,15.1 0.15,-21.57 -0.23,-36.64 -1.21,-45.25 -0.94,-8.71 -2.62,-17.75 -5.03,-27.15 -0.7,-2.67 -5.72,-14.55 -15.05,-35.7 -9.43,-21.12 -20.02,-44.08 -31.92,-69 -11.87,-24.81 -23.4,-47.66 -34.51,-68.39l-57.4 41.15c4.38,-9.62 7.97,-18.01 10.68,-25.13 2.83,-7.09 6.02,-15.71 9.52,-25.94 5.33,-14.79 9.89,-29.14 13.85,-43.27 18.56,-13.66 33.85,-24.1 45.92,-31.22 12.08,-7.15 26.47,-14.7 43.18,-22.66 32.1,-15.31 61.22,-25.06 87.31,-29.2 31.99,-5.07 59.98,-2.33 84.08,8.37 27.53,12.23 50.33,35.09 68.32,68.65zm-89.23 52.4c-12.29,-22.93 -29.34,-38.27 -51.09,-46.12 -23.97,-8.62 -50.09,-6.18 -78.51,7.36l86.52 187.91c30.75,-14.64 49.98,-35.02 57.72,-61.07 7.81,-26.08 2.88,-55.42 -14.64,-88.08z"/>
   <path class="fil0" d="M12826.16 16981.45c-7.24,6.06 -12.93,10.84 -17.08,14.22 -4.08,3.47 -9.24,8.27 -15.16,14.29 -6.01,6.05 -11.43,12.11 -16.27,18.17 -4.83,6.08 -10.19,13.64 -16.18,22.85l-23.69 -23c-2.68,-2.58 -5.2,-4.86 -7.58,-6.97 -2.31,-2.14 -7.03,-6 -14.26,-11.74 -6.09,2.94 -14.15,6.69 -24.22,11.28 -10.05,4.59 -18.05,8.67 -23.93,12.18l-51.37 30.83c0.52,12.13 0.89,24.21 1.31,36.38l2.41 34.6c-7.36,-1.37 -14.11,-2.24 -20.05,-2.55 -6.06,-0.25 -12.41,0.02 -19.24,0.86 -6.87,0.76 -12.96,1.87 -18.34,3.3 -5.38,1.41 -11.15,3.53 -17.31,6.21 -0.26,-8.08 -0.55,-14.06 -0.83,-17.88 -0.28,-3.82 -0.77,-9.41 -1.58,-16.72 -0.49,-3.86 -0.95,-7.67 -1.38,-11.58 -0.51,-3.87 -0.97,-7.83 -1.63,-11.81l-49.12 -36.64 38.65 -13.33c-3.28,-24.31 -6.58,-46.59 -9.95,-66.67 -3.35,-20.2 -7.58,-42.39 -12.6,-66.62 -3.26,-15.64 -6.88,-32.12 -10.95,-49.53 -4,-17.44 -8.28,-33.88 -12.7,-49.25l30.86 -25.06c10.77,-9.63 20.21,-18.56 28.34,-26.9l14.85 15.2c13.34,13.19 27.63,25.82 43.06,37.86 9.67,7.49 23.63,17.8 41.75,30.83 19.99,14.37 35.53,25.87 46.6,34.56 20.95,16.11 36,27.83 45.02,35.1 16.48,13.05 31.19,25.14 43.94,36.51 8.97,8.28 17.99,16.37 26.96,24.41 3.44,2.82 7.31,5.84 11.65,9.12 4.21,3.27 7.62,5.76 10.02,7.49zm-165 -17.03l-38.19 -30.8 -46.2 -39.13c1.77,9.18 3.51,18.19 5.21,27.23 1.28,6.48 3.37,15.66 6.11,27.41 3.11,13.45 5.03,21.7 5.76,24.62 1.97,7.89 4.19,16.16 6.7,24.89l26.99 -15.12 33.62 -19.1zm445.89 -428.37c34.49,33.95 52.57,73.91 54.08,120 1.52,47.54 -15.03,86.94 -49.66,118.24 -39.5,35.71 -82.34,52.43 -128.5,50.1 -43.04,-2.25 -81.81,-20.35 -116.31,-54.3 -21.66,-21.28 -36.71,-47.48 -45.09,-78.57 -7.67,-28.62 -8.01,-54.14 -1.2,-76.49l-16.53 -6.87c6.16,-14.48 13.58,-28.39 22.37,-41.72 10.56,-15.79 22.62,-29.88 36.37,-42.32 40.9,-36.97 84.3,-52.92 130.28,-47.78 40.25,4.47 78.29,24.41 114.19,59.71zm-73.52 65.3c-15.21,-14.94 -27.48,-25.56 -36.67,-31.95 -13.04,-8.96 -26.73,-14.92 -41.11,-17.8 -9.54,-1.87 -19.86,0.26 -31.1,6.41 -8.02,4.38 -16.7,10.86 -26.11,19.38 -0.94,0.85 -3.22,3.02 -6.87,6.61 -3.62,3.6 -5.91,5.67 -6.84,6.2 -1.08,20.55 3.18,40.64 12.83,60.3 7.94,16.09 19.18,31.34 33.78,45.69 21.21,20.85 43.18,34.75 65.95,41.69 27.21,8.31 49.79,4.33 67.7,-11.84 17.65,-15.99 22.34,-35.78 14.16,-59.63 -6.89,-20.12 -22.12,-41.84 -45.72,-65.06zm102.13 -404.66l59.43 45.33c17.14,12.72 36.51,27.31 58.15,43.79 21.64,16.46 33.63,25.57 35.98,27.32l20.56 15.26c13,9.67 22.68,17.07 28.98,22.14 6.29,5.07 15.09,12.57 26.41,22.62 5.47,4.07 9.56,7.31 12.18,9.85 7.33,7.79 13.35,13.91 17.91,18.36 0.85,4.04 1.64,8.03 2.43,12.02 1.14,6.3 1.46,12.96 0.93,19.87 -0.59,9.98 -1.05,16.82 -1.35,20.5 -0.86,7.73 -2.25,15.16 -4.17,22.4 -4.86,-0.49 -9.71,-1.09 -14.66,-1.85 -1.1,-0.04 -9.02,-0.67 -23.67,-1.92 -22.37,-1.15 -44.61,-2.31 -66.83,-3.64 -16.64,-1.56 -35.95,-4.52 -57.83,-8.72 -27.5,-5.26 -46.46,-8.73 -56.9,-10.46 6.82,5.06 12.54,9.59 17.04,13.45 16.08,13.6 25.51,21.46 28.24,23.5 11.65,8.67 22.56,17.83 32.78,27.47 12.41,12.44 22.48,22.36 30.31,30.01l-11.93 39.59 -11.82 39.61c-6.44,-6.65 -12.52,-12.83 -18.44,-18.58 -5.89,-5.66 -13.26,-12.78 -22.05,-21.15 -4.91,-4.73 -11.84,-10.66 -20.72,-17.83 -8.9,-7.11 -16.84,-13.28 -23.84,-18.49 -5.16,-3.85 -10.37,-7.72 -15.67,-11.64 -5.34,-3.97 -10.68,-7.95 -16.16,-12.03 -10.13,-7.52 -19.63,-14.88 -28.63,-22.05 -8.98,-7.16 -17.7,-14.62 -26.07,-22.4 -8.4,-7.7 -16.34,-15.26 -23.77,-22.52 -4.15,-4.06 -11.42,-11.3 -21.85,-21.77l-38.64 -7.51c5.4,-11.75 9.6,-24.8 12.63,-39.07 1.75,-7.37 2.89,-14.31 3.5,-20.85 0.59,-6.48 0.68,-14 0.18,-22.43l47.18 7.89 82.69 13.18 115.69 20.01 -72.51 -53.88c-7.89,-5.87 -15.48,-11.13 -22.76,-15.74 -21.57,-13.72 -34.08,-21.82 -37.52,-24.38l-25.62 -20.22c4.81,-9.47 8.33,-16.28 10.41,-20.49 3.68,-7.38 6.72,-14.08 9.09,-20.01 2.31,-5.95 4.39,-11.79 6.15,-17.59 1.15,-3.35 2.64,-8.96 4.56,-16.95zm398.07 -71c7.72,12.11 15.33,24.06 22.85,36.02 4.86,6.43 9.03,11.63 12.5,15.56 3.45,3.95 8.16,8.92 14.12,15.01l-12.53 23.23c-0.47,0.71 -7.49,14.56 -20.88,41.61 -7.66,15.18 -16.19,29.73 -25.68,43.51 -8.22,11.93 -19.18,27.61 -32.89,47.11 -13.74,19.54 -23.14,32.93 -28.13,40.19l-31.94 -33.92 -22.81 -24.99 5.82 -11.81 -63.12 -44.18c-22.87,-13.97 -41.63,-25.84 -56.38,-35.75 -14.78,-9.84 -31.35,-21.82 -49.81,-35.75 -7.79,-6.04 -15.88,-12.45 -24.19,-19.43 -8.37,-6.94 -14.55,-12.01 -18.62,-15.23l12.07 -28.24c6.09,-11.48 12.14,-23.08 18.14,-34.89 4.8,-11.47 8.91,-23.09 12.23,-34.8 10.43,10.58 20.85,20.96 31.2,31.19 17.01,15.6 29.23,26.35 36.6,32.32 11.28,9.18 24.75,18.53 40.26,28 6.05,3.7 12.82,7.75 20.29,12.22 7.43,4.35 15.61,9.19 24.48,14.43 9.85,6.03 16.7,10.4 20.47,13.06 3.77,2.67 10.22,7.35 19.24,14.15 1.7,1.31 6.75,4.95 15.14,10.88 8.35,5.94 14.03,9.95 17.01,12.05 6.04,-8.78 10.39,-15.23 12.94,-19.23 12.73,-19.9 19.41,-30.31 19.97,-31.13 6.45,-9.37 12.23,-19.32 17.41,-29.81 1.21,-2.45 5.93,-12.95 14.24,-31.38zm-191.26 -260.45c9.88,7.18 19.04,13.79 27.69,19.69 8.52,5.96 18.74,11.77 30.61,17.43 4.13,1.97 11.42,6.14 21.97,12.54 10.48,6.38 19.3,11.26 26.32,14.6l37.29 18.72 165.78 79.05c-2.99,10.99 -5.36,20.82 -6.95,29.4 -1.67,8.53 -3.36,19.29 -5.23,32.28 -0.98,6.39 -1.76,12.61 -2.27,18.61 -0.28,4.23 -0.77,10.58 -1.4,19.02l-49.89 -27.89c-11.7,-5.59 -31.48,-17.33 -59.27,-35.1 -14.04,-9.02 -26.38,-16.02 -37.09,-21.12l-107.77 -51.4c-11.86,-5.66 -22.61,-11.38 -32.27,-17.08 -12.54,-8.12 -22.77,-14.45 -30.74,-19.2 3.02,-5.66 5.35,-10.47 6.94,-14.33 1.57,-3.89 2.95,-7.33 4.08,-10.47 3.98,-10.62 6.87,-23.62 8.64,-39.13 1.46,-11.56 2.61,-20.08 3.56,-25.62zm115.32 -256.22l70.92 26.87c20.34,7.42 43.41,16 69.22,25.76 25.83,9.74 40.11,15.13 42.91,16.14l24.41 8.92c15.44,5.63 27.01,10.03 34.6,13.11 7.6,3.11 18.32,7.84 32.28,14.32 6.51,2.38 11.43,4.34 14.73,6.04 9.43,5.41 17.09,9.6 22.82,12.59 2.09,3.62 4.07,7.22 6.08,10.83 3.05,5.7 5.42,11.96 7.09,18.72 2.53,9.7 4.21,16.37 5.09,19.96 1.57,7.64 2.58,15.12 3,22.56 -4.8,0.88 -9.64,1.66 -14.6,2.31 -1.07,0.27 -8.85,1.85 -23.21,4.72 -21.74,5.1 -43.39,10.15 -65.03,15.02 -16.4,3.13 -35.77,5.63 -58,7.68 -27.91,2.61 -47.12,4.53 -57.62,5.78 8.08,2.95 14.95,5.69 20.46,8.12 19.62,8.55 31.06,13.47 34.32,14.66 13.84,5.05 27.11,10.8 39.87,17.17 15.74,8.45 28.46,15.15 38.34,20.29l0.94 41.15 1.03 41.13c-8.21,-4.56 -15.96,-8.79 -23.42,-12.65 -7.4,-3.78 -16.65,-8.55 -27.67,-14.11 -6.17,-3.15 -14.61,-6.91 -25.35,-11.3 -10.74,-4.33 -20.23,-8.04 -28.56,-11.08 -6.12,-2.24 -12.31,-4.5 -18.59,-6.79 -6.36,-2.31 -12.7,-4.62 -19.21,-7 -12,-4.38 -23.41,-8.81 -34.23,-13.16 -10.81,-4.36 -21.48,-9.07 -31.9,-14.18 -10.43,-5.05 -20.38,-10.07 -29.75,-14.97 -5.22,-2.72 -14.41,-7.62 -27.66,-14.76l-39.26 3.53c1.49,-12.73 1.45,-26.34 -0.1,-40.84 -0.64,-7.52 -1.7,-14.47 -3.15,-20.89 -1.47,-6.36 -3.73,-13.57 -6.82,-21.5l47.56 -5.51 83.14 -10.31 116.82 -12.92 -86.1 -31.42c-9.39,-3.42 -18.26,-6.34 -26.65,-8.76 -24.9,-7.11 -39.38,-11.4 -43.46,-12.91l-30.79 -12.21c1.65,-10.38 2.89,-17.88 3.57,-22.46 1.23,-8.08 2.03,-15.33 2.45,-21.65 0.34,-6.34 0.52,-12.49 0.4,-18.52 0.04,-3.52 -0.28,-9.3 -0.92,-17.48zm103.35 -269.2c4.74,6.16 9.01,11.59 12.84,16.25 3.86,4.59 8.3,9.49 13.33,14.71 6.48,7.03 12.47,13.22 17.93,18.62 5.38,5.39 11.62,11.01 18.7,16.94 -1.84,12.37 -3.49,22.18 -4.99,29.55 -1.52,7.39 -4.02,16.89 -7.41,28.28 -0.67,2.22 -1.17,3.92 -1.52,5.08 -0.52,1.77 -0.93,3.17 -1.23,4.13 -0.48,1.62 -0.81,2.72 -0.97,3.3 -1.07,3.55 -2.34,7.24 -3.69,11.01 -1.39,3.77 -3.13,7.99 -5.34,12.5l65.7 25.38c2.42,-8.09 4.26,-15.71 5.44,-22.86 1.36,-9.88 2.59,-17.73 3.59,-23.64l4.93 -31.25c4.69,4.02 10.96,9.23 18.81,15.68 7.78,6.42 14.91,12.13 21.38,17.03l27.67 21.34 -13.6 45.71 16.97 5.42c3.84,1.03 7.04,2.12 9.75,3.22 9.22,3.8 14.42,5.87 15.75,6.23 2.96,0.77 5.91,1.58 8.89,2.35 3.04,0.81 6,1.58 8.97,2.38 2.05,-11.45 4.93,-23.39 8.65,-35.89 1.53,-5.16 3.99,-11.74 7.4,-19.8 3.41,-8.07 5.9,-14.71 7.43,-19.85 2.24,-7.52 4.96,-21 8.32,-40.43 1.65,-9.81 3.44,-17.84 5.25,-23.93 3.4,3.9 5.77,6.69 7.06,8.28 2.8,3.05 4.87,5.9 6.42,8.37 5.17,7.81 9.03,13.51 11.56,17.2 2.53,3.68 5.51,7.24 8.79,10.64 4.21,4.78 8.62,9.28 12.99,13.52 4.45,4.28 9.17,8.21 14.19,11.93 -2.4,8.11 -5.7,22.93 -9.83,44.47 -2.13,10.79 -4.27,19.98 -6.57,27.7 -3.2,10.77 -6.13,19.82 -8.98,27.32 -2.78,7.44 -9.68,24.99 -20.84,52.59l-12.16 28.45 -9.52 21.54c-12.92,-9.83 -24.37,-19.4 -34.33,-28.62 -1.58,-1.52 -5.71,-5.78 -12.43,-12.88 -3.68,-3.74 -7.07,-7.09 -10.3,-10.1 -4,-0.97 -7.14,-1.73 -9.48,-2.35 -2.35,-0.61 -4.05,-1.15 -5.34,-1.58 -3.36,-0.88 -6.47,-1.77 -9.4,-2.64 -2.86,-0.83 -6.65,-2.31 -11.28,-4.24 -4.63,-2.01 -9.23,-4.11 -13.76,-6.41 -4.44,-1.19 -7.98,-1.73 -10.65,-1.8l-12.87 30.5c-3.43,-3.47 -7.19,-7.22 -11.2,-11.32 -4.02,-3.99 -7.54,-7.77 -10.44,-11.24 -2.97,-3.4 -6.14,-7.42 -9.49,-11.95 -3.48,-4.48 -6.7,-9.23 -9.79,-14.09l-33.6 -10.48c-4.6,-1.22 -10.44,-3.4 -17.42,-6.51 -6.99,-3.11 -12.81,-5.36 -17.42,-6.59l-17.13 -2.94 -6.77 46.3 -25.95 -29.95 -22.74 -26.81c2.2,-17.35 4.36,-34.79 6.71,-52.36 2.82,-9.48 6.13,-19.16 9.98,-29.03 9.6,-24.6 15.32,-40.09 17.18,-46.41 5.72,-19.21 9.56,-35.8 11.47,-49.83 1.95,-13.93 3.39,-32.68 4.39,-56.14z"/>
  </g>
 </g>
</svg>
