<?xml version="1.0" encoding="UTF-8"?>
<!DOCTYPE svg PUBLIC "-//W3C//DTD SVG 1.1//EN" "http://www.w3.org/Graphics/SVG/1.1/DTD/svg11.dtd">
<!-- Creator: CorelDRAW 2021 (64-Bit) -->
<svg xmlns="http://www.w3.org/2000/svg" xml:space="preserve" width="176.389mm" height="176.389mm" version="1.1" style="shape-rendering:geometricPrecision; text-rendering:geometricPrecision; image-rendering:optimizeQuality; fill-rule:evenodd; clip-rule:evenodd"
viewBox="0 0 17638.88 17638.88"
 xmlns:xlink="http://www.w3.org/1999/xlink"
 xmlns:xodm="http://www.corel.com/coreldraw/odm/2003">
 <defs>
  <style type="text/css">
   <![CDATA[
    .str0 {stroke:#99FF00;stroke-width:30.79;stroke-linecap:round;stroke-miterlimit:10;stroke-dasharray:143.990000 321.860000}
    .fil1 {fill:none;fill-rule:nonzero}
    .fil0 {fill:#ECC485;fill-rule:nonzero}
    .fil2 {fill:#99FF00;fill-rule:nonzero}
   ]]>
  </style>
 </defs>
 <g id="Capa_x0020_1">
  <metadata id="CorelCorpID_0Corel-Layer"/>
  <path class="fil0" d="M8551.87 7401.14l94.36 94.39 110.82 -110.83c-46.2,-13.38 -91.3,-31.48 -134.5,-54.23l-70.68 70.67z"/>
  <path class="fil0" d="M8947.9 7334.04c60,0 119.97,-22.88 165.72,-68.66l376.66 -376.63c11.94,-11.95 11.94,-31.34 0,-43.32l-5.27 -5.23c-5.97,-5.97 -13.79,-8.96 -21.64,-8.96 -7.82,0 -15.67,2.99 -21.64,8.96l-348.37 348.37 -49.44 -49.41 348.36 -348.4c11.95,-11.97 11.95,-31.34 0,-43.29 -5.97,-5.96 -13.82,-8.96 -21.64,-8.96 -7.82,0 -15.66,3 -21.64,8.96l-348.37 348.37 -49.29 -49.25 348.41 -348.37c11.94,-11.98 11.94,-31.35 0,-43.29 -5.97,-6 -13.83,-8.99 -21.65,-8.99 -7.85,0 -15.67,2.99 -21.64,8.99l-348.4 348.37 -49.25 -49.26 348.39 -348.39c11.95,-11.95 11.95,-31.35 0,-43.29l-5.26 -5.23c-5.97,-6.01 -13.83,-8.99 -21.67,-8.99 -7.82,0 -15.64,2.98 -21.62,8.99l-376.66 376.63c-53.69,53.69 -75.86,126.87 -66.59,196.78 7.61,57.32 -8.16,115.23 -49.04,156.11l-43.81 43.82c43.2,22.75 88.3,40.85 134.5,54.23l0 0c42,-41.98 101.23,-60.39 160.09,-52.67 10.19,1.33 20.48,2.01 30.76,2.01z"/>
  <path class="fil0" d="M9490.28 6888.75c11.94,-11.95 11.94,-31.34 0,-43.32l-5.27 -5.23c-5.97,-5.97 -13.79,-8.96 -21.64,-8.96 -7.82,0 -15.67,2.99 -21.64,8.96l-348.37 348.37 -49.44 -49.41 348.36 -348.4c11.95,-11.97 11.95,-31.34 0,-43.29 -5.97,-5.96 -13.82,-8.98 -21.64,-8.98 -7.82,0 -15.66,3.02 -21.64,8.98l-348.37 348.37 -49.29 -49.25 348.37 -348.37c11.98,-11.98 11.98,-31.35 0,-43.29 -5.93,-6 -13.79,-8.99 -21.61,-8.99 -7.85,0 -15.67,2.99 -21.64,8.99l-348.4 348.37 -49.25 -49.26 348.39 -348.39c11.95,-11.95 11.95,-31.35 0,-43.29l-5.26 -5.23c-5.97,-6.01 -13.83,-8.99 -21.67,-8.99 -7.82,0 -15.64,2.98 -21.64,8.99l-376.64 376.63c-14.96,14.96 -27.21,31.56 -37.28,49.07l319.86 319.86c17.52,-10.1 34.11,-22.35 49.05,-37.31l376.66 -376.63z"/>
  <path class="fil0" d="M8715.4 7130.54c7.61,57.32 -8.16,115.23 -49.04,156.11l-43.81 43.82c43.2,22.75 88.3,40.85 134.5,54.23 42,-41.98 101.23,-60.39 160.09,-52.67 10.19,1.33 20.48,2.01 30.76,2.01 40.38,0 80.62,-10.62 116.67,-31.35l-319.86 -319.86c-26.07,45.28 -35.98,97.29 -29.31,147.71z"/>
  <path class="fil0" d="M7621.4 8331.61c-29.12,29.12 -25.95,78.33 9.95,102.77 10.89,7.38 23.36,10.89 35.89,10.89 18.32,0 36.67,-7.44 50.28,-21.06l489.48 -489.46c-49.65,-9.97 -98.54,-23.94 -145.97,-42.76l-439.63 439.62z"/>
  <path class="fil0" d="M8295.3 7657.72l-234.27 234.27c47.43,18.82 96.32,32.79 145.97,42.76l201.22 -201.21c-38.17,-22.16 -75.88,-47.63 -112.92,-75.82z"/>
  <path class="fil0" d="M9398.29 8331.61l-1682.04 -1682.03c-3.72,-3.7 -7.82,-5.36 -11.82,-5.36 -8.37,0 -16.5,7.11 -20.72,17.24 -39.64,95.62 453.32,1003.61 955.46,1099.79l662.21 662.19c13.88,13.86 32.75,21.56 51.41,21.56 13.09,0 26.07,-3.76 37.19,-11.79 34.36,-24.82 36.97,-72.94 8.31,-101.6z"/>
  <path class="fil0" d="M9398.29 8331.61l-1682.04 -1682.03c-3.72,-3.7 -7.82,-5.36 -11.82,-5.36 -4.46,0 -8.8,2.12 -12.56,5.54l1709.07 1773.54c23.52,-26.24 22.57,-66.48 -2.65,-91.69z"/>
  <path class="fil0" d="M8550.49 5871.56c-870.69,0 -1579.04,708.35 -1579.04,1579.03 0,870.68 708.35,1579.02 1579.04,1579.02 870.67,0 1579.02,-708.34 1579.02,-1579.02 0,-870.68 -708.35,-1579.03 -1579.02,-1579.03zm0 3191.8c-889.28,0 -1612.78,-723.5 -1612.78,-1612.77 0,-889.31 723.5,-1612.77 1612.78,-1612.77 889.3,0 1612.77,723.46 1612.77,1612.77 0,889.27 -723.47,1612.77 -1612.77,1612.77z"/>
  <path class="fil1 str0" d="M8550.49 8940.21c-821.37,0 -1489.64,-668.23 -1489.64,-1489.62 0,-821.36 668.27,-1489.63 1489.64,-1489.63 821.39,0 1489.62,668.27 1489.62,1489.63 0,821.39 -668.23,1489.62 -1489.62,1489.62z"/>
  <path class="fil2" d="M7378.5 5980.77c-7.71,9.23 -13.79,16.51 -18.22,21.7 -4.36,5.26 -9.71,12.45 -15.83,21.37 -6.19,8.98 -11.67,17.88 -16.42,26.68 -4.77,8.81 -9.87,19.64 -15.42,32.75l-33.61 -25.61c-3.79,-2.84 -7.34,-5.37 -10.67,-7.67 -3.25,-2.37 -9.82,-6.53 -19.8,-12.65 -6.91,4.94 -16.07,11.29 -27.53,19.12 -11.46,7.84 -20.5,14.63 -27.04,20.31l-57.05 49.6c2.97,15.7 5.8,31.38 8.7,47.13l9.72 44.64c-9.32,-0.44 -17.75,-0.31 -25.14,0.39 -7.48,0.76 -15.22,2.28 -23.44,4.63 -8.3,2.28 -15.55,4.85 -21.88,7.69 -6.34,2.84 -13.03,6.65 -20.05,11.3 -1.92,-10.48 -3.44,-18.23 -4.52,-23.15 -1.09,-4.93 -2.8,-12.12 -5.22,-21.49 -1.35,-4.95 -2.66,-9.82 -3.95,-14.83 -1.37,-4.95 -2.73,-10.04 -4.3,-15.08l-67.52 -38.68 44.88 -24.48c-8.74,-31.07 -17.18,-59.5 -25.24,-85.04 -8.06,-25.68 -17.58,-53.82 -28.49,-84.48 -7.04,-19.76 -14.72,-40.56 -23.11,-62.49 -8.32,-21.98 -16.8,-42.63 -25.23,-61.83l33.01 -38.3c11.35,-14.55 21.21,-27.92 29.56,-40.26l21.22 17.04c18.96,14.74 38.97,28.56 60.27,41.39 13.35,7.99 32.5,18.82 57.31,32.47 27.36,15.04 48.7,27.17 63.96,36.44 28.92,17.14 49.67,29.66 62.19,37.45 22.78,13.94 43.21,27 61.11,39.45 12.63,9.17 25.28,18.04 37.86,26.84 4.79,3.04 10.13,6.27 16.09,9.76 5.83,3.47 10.49,6.08 13.8,7.89zm-206.02 8.22l-52.92 -33.09 -64.4 -42.47c3.97,11.63 7.88,23.04 11.72,34.5 2.85,8.2 7.18,19.78 12.85,34.58 6.46,16.94 10.44,27.35 11.89,31.02 3.96,9.91 8.3,20.28 13.1,31.17l30.2 -24.65 37.56 -31.06zm494.14 -272.08c1.34,18.54 2.68,36.87 3.86,55.15 1.54,10.28 3.07,18.71 4.56,25.3 1.5,6.58 3.75,15.05 6.71,25.56l-27.7 20.27c-0.95,0.56 -16.96,12.89 -47.92,37.16 -17.51,13.54 -35.65,25.83 -54.36,36.7 -16.19,9.4 -37.7,21.67 -64.5,36.88 -26.87,15.27 -45.25,25.7 -55.09,31.42l-15.17 -57.79 -10.4 -42.15 13.5 -10.64 -43.64 -87.34c-16.99,-29.25 -30.74,-53.75 -41.16,-73.66 -10.48,-19.87 -21.74,-43.25 -33.88,-69.97 -5.06,-11.5 -10.19,-23.53 -15.23,-36.44 -5.14,-12.85 -8.97,-22.26 -11.56,-28.32l30.19 -26.39c13.57,-10.1 27.18,-20.33 40.87,-30.85 12.14,-10.77 23.61,-22.09 34.27,-33.99 5.26,18.26 10.63,36.32 15.99,54.16 9.55,27.87 16.68,47.36 21.31,58.53 7.02,17.11 16.39,35.65 27.92,55.5 4.5,7.74 9.59,16.31 15.19,25.75 5.64,9.3 11.83,19.55 18.53,30.68 7.33,12.63 12.31,21.61 14.9,26.86 2.59,5.25 6.94,14.36 12.9,27.43 1.11,2.5 4.53,9.6 10.27,21.29 5.74,11.67 9.62,19.55 11.68,23.71 11.92,-6.93 20.58,-12.07 25.79,-15.34 25.96,-16.23 39.55,-24.71 40.68,-25.37 12.71,-7.38 25.03,-15.83 37.03,-25.23 2.79,-2.2 14.28,-11.91 34.46,-28.87zm539.32 -520.64c-2.92,11.62 -5.15,21.22 -6.66,29 -1.64,7.72 -2.94,16.9 -4.12,27.49 -1.61,12.36 -2.68,22.53 -3.25,30.39 -0.54,7.98 -0.65,17.82 -0.55,29.47l-87.82 20.18c3.02,13.14 7.06,38.36 12.3,75.58 2.61,18.51 5.4,34.29 8.38,47.24 7.1,30.9 12.07,62.4 15,94.47 2.94,32.17 5.86,64.25 8.81,96.41 -8.49,5.26 -17.42,10.92 -26.86,17.02 -6.58,4.2 -15.34,10.15 -26.41,17.75 -9.1,6.22 -16.94,11.64 -23.33,16.21 -9.51,7.14 -17.09,12.8 -22.79,16.8 -1.75,-22.01 -3.24,-37.89 -4.33,-47.66 -1.6,-16.79 -4.17,-32.5 -7.49,-46.93 -3.44,-15.02 -8.48,-42.78 -14.96,-83.12 -3.35,-20.41 -6.72,-37.82 -10.04,-52.23l-27.25 -118.63c-7.95,1.83 -18.09,4.46 -30.59,8.07 -12.53,3.49 -22.73,6.25 -30.58,8.06 -10.11,2.32 -19.93,5.4 -29.77,9.32 -9.75,3.88 -19.5,7.77 -29.14,11.65l6.15 -55.02 4.5 -51.04c20.89,-12.03 38.52,-21.14 53.05,-27.58 14.56,-6.34 31.78,-11.84 51.89,-16.47 13.74,-3.15 39.46,-6.28 77.36,-9.51 19.15,-1.61 35.33,-3.98 48.88,-7.09 16.87,-3.88 37.33,-11.48 61.39,-22.79 16.58,-7.83 29.32,-13.55 38.23,-17.04zm538.78 237.94c-1.84,61.88 -23.65,114.81 -65.64,158.69 -43.34,45.25 -94.75,66.99 -154.32,65.22 -67.93,-2.01 -120.94,-24.53 -158.94,-67.56 -35.38,-40.22 -52.08,-91.28 -50.25,-153.16 1.15,-38.84 12.63,-76.37 34.55,-112.49 20.23,-33.24 43.89,-57.11 70.82,-71.72l-7.94 -20.98c18.96,-7.9 38.49,-14.17 58.67,-18.71 24.02,-5.23 47.76,-7.54 71.4,-6.84 70.34,2.08 123.12,25.81 158.34,71.26 30.84,39.79 45.21,91.88 43.31,156.29zm-125.36 -4.83c0.81,-27.26 0.11,-47.93 -1.89,-62 -2.93,-19.82 -9.26,-37.44 -19.08,-52.83 -6.55,-10.16 -17.51,-17.34 -33.1,-21.63 -11.08,-3.04 -24.73,-4.76 -40.93,-5.24 -1.61,-0.05 -5.64,-0.07 -12.18,0.04 -6.56,0.11 -10.48,-0.01 -11.79,-0.35 -20.27,18.04 -35.43,40.35 -45.49,67.03 -8.2,21.92 -12.74,45.96 -13.52,72.12 -1.13,38.04 4.96,70.35 18.28,96.93 15.88,31.79 39.27,48.1 70.05,49.01 30.39,0.9 53.07,-13.24 68.34,-42.49 12.92,-24.7 20.06,-58.22 21.31,-100.59zm673.09 133.14c-8.79,31.19 -20.52,56.86 -35.12,76.8 -14.62,19.94 -35.56,38.2 -62.88,54.98l29.95 69.31 -49.17 17.11 -43.07 13.28 -13.32 -38.06 -8.48 -28.22c-19.36,3.01 -37.35,4.12 -53.89,3.43 -16.51,-0.79 -33.89,-3.69 -52.11,-8.82 -57.75,-16.28 -101.02,-49.81 -129.68,-100.65 -28.66,-50.86 -35.12,-104.45 -19.25,-160.74 18.56,-65.9 57.02,-114.37 115.16,-145.16 56.51,-30.2 117,-36.27 181.35,-18.14 57.36,16.16 99.29,50.35 125.91,102.51 25.92,50.92 30.76,105 14.6,162.37zm-117.91 -26.96c10.13,-35.94 12.5,-67.38 7.18,-94.19 -7.34,-36.69 -28.9,-60.02 -64.55,-70.07 -31.4,-8.84 -60.67,-1.09 -87.86,23.37 -24.42,22.08 -41.77,51.4 -52.04,87.83 -10.43,37.02 -12.28,69.55 -5.63,97.57 8.18,34.1 28.15,55.62 59.94,64.58 8.34,2.35 15.25,3.77 20.78,4.18 5.44,0.38 12.66,0 21.36,-1.2l-5.62 -20.52c-1.22,-3.47 -2.68,-6.82 -4.26,-10.08 -2.86,-5.83 -4.59,-9.35 -5.15,-10.34 10.77,-1.47 19.04,-2.59 24.71,-3.4 5.63,-0.71 13.67,-2.12 24.05,-4.1 10.39,-1.99 18.09,-3.69 23.29,-5.04 1.76,-0.35 9.38,-2.5 22.78,-6.25 5.34,-8.94 9.18,-16.66 11.75,-23.14 2.53,-6.41 5.61,-16.21 9.27,-29.2zm611.13 137.24c-2.87,6.48 -7.77,15.64 -14.73,27.54 -14.55,24.85 -30.62,48.33 -48.33,70.62 -24.02,30.27 -48.24,54.7 -72.66,73.3 -30.81,23.73 -61.48,38.44 -92.08,44.1 -34.43,6.2 -52.29,9.39 -53.64,9.53 -17.57,2.31 -33.6,1.8 -48.11,-1.32 -18.09,-3.96 -38.2,-12.46 -60.35,-25.43 -35.54,-20.8 -56.61,-45.97 -63.15,-75.46 -5.35,-24.13 -1.02,-52.86 12.73,-86.11 7.53,-18.23 22.87,-47.03 46.01,-86.57 5.19,-8.85 23.83,-34.92 56.07,-78.23 16.04,-21.63 28.74,-40.33 37.89,-55.97l22.18 -37.88c4.4,1.66 11.99,4.22 22.77,7.73 15.6,5.05 28.14,9.13 37.69,12.16l60.63 17.18c-10.38,17.71 -18.98,31.81 -25.72,42.33 -23.82,36.91 -38.64,60.43 -44.5,70.42 -13.01,22.25 -27.06,45.05 -42.09,68.33 -15.17,23.32 -30.76,47.56 -47.03,72.56 -11.75,20.07 -17.49,35.25 -17.19,45.7 0.35,10.36 7.85,19.88 22.53,28.47 19.64,11.5 40.55,10.44 62.98,-3.15 18.23,-11.02 37.94,-30.74 59.04,-59.22 14.81,-19.91 31.4,-45.66 49.91,-77.29 7.53,-12.85 13.89,-25.11 19.22,-36.81 13.64,-30.27 22.44,-48.69 26.3,-55.29l19.25 -35.27 62.74 11.18c10.47,2.05 21.03,4.14 31.95,6.22 10.86,2.16 21.23,4.38 31.18,6.7 -17.95,30.67 -35.08,63.92 -51.49,99.93zm436.05 241.98c-9.86,1.88 -18.57,3.69 -26.15,5.41 -7.5,1.78 -15.69,4.04 -24.55,6.78 -11.8,3.39 -22.34,6.69 -31.66,9.82 -9.27,3.05 -19.25,6.96 -30.04,11.63 -13.8,-8.95 -24.64,-16.27 -32.65,-22.09 -8,-5.82 -18.05,-13.91 -29.88,-24.08 -2.29,-1.96 -4.04,-3.47 -5.26,-4.52 -1.84,-1.58 -3.29,-2.83 -4.28,-3.68 -1.68,-1.44 -2.83,-2.42 -3.44,-2.95 -3.66,-3.15 -7.42,-6.65 -11.2,-10.29 -3.77,-3.64 -7.88,-7.97 -12.11,-12.93l-64.8 59.81c8.4,7.21 16.52,13.52 24.42,18.85 11.09,7.01 19.81,12.78 26.36,17.21l34.72 22.92c-7.27,3.05 -16.8,7.21 -28.61,12.45 -11.75,5.18 -22.31,10.05 -31.53,14.59l-40.01 19.24 -47.42 -40.75 -15.42 16.09c-3.21,3.74 -6.2,6.75 -8.95,9.18 -9.36,8.27 -14.58,12.95 -15.69,14.25 -2.5,2.9 -4.99,5.8 -7.48,8.7 -2.56,2.98 -5.05,5.88 -7.55,8.78 12.59,8.69 25.32,18.58 38.3,29.73 5.36,4.6 11.9,11.01 19.75,19.35 7.84,8.33 14.47,14.83 19.81,19.42 7.79,6.69 22.45,17.29 43.9,31.87 10.83,7.32 19.46,13.8 25.79,19.25 -6.44,1.63 -10.99,2.76 -13.6,3.31 -5.1,1.46 -9.61,2.23 -13.36,2.59 -12.03,1.47 -20.86,2.64 -26.58,3.43 -5.73,0.8 -11.54,2.16 -17.34,3.96 -7.91,2.1 -15.58,4.53 -22.95,7.1 -7.44,2.62 -14.63,5.73 -21.71,9.35 -8.4,-7.22 -24.36,-19.23 -47.9,-35.86 -11.77,-8.39 -21.62,-15.93 -29.64,-22.81 -11.15,-9.58 -20.43,-17.94 -27.9,-25.3 -7.41,-7.3 -24.72,-24.83 -51.82,-52.76l-27.58 -29.54 -20.71 -22.71c18.51,-9.04 35.93,-16.64 52.17,-22.72 2.65,-0.91 9.9,-3.17 21.91,-6.8 6.41,-2.05 12.19,-3.99 17.46,-5.96 3.28,-3.96 5.82,-7.08 7.8,-9.37 1.96,-2.29 3.47,-3.9 4.67,-5.14 2.82,-3.28 5.52,-6.27 8.09,-9.11 2.5,-2.76 6.24,-6.18 10.99,-10.32 4.84,-4.08 9.75,-8.1 14.88,-11.91 3.74,-4.35 6.24,-8.04 7.74,-11.01l-29.65 -31.45c5.91,-1.95 12.39,-4.08 19.37,-6.32 6.89,-2.31 13.24,-4.14 18.92,-5.5 5.61,-1.43 12.08,-2.78 19.26,-4.03 7.18,-1.4 14.52,-2.38 21.96,-3.16l30.13 -31.98c3.87,-4.51 9.54,-9.86 16.92,-15.99 7.4,-6.12 13.14,-11.41 17.01,-15.92l12.51 -17.65 -51.72 -33.42 49.38 -12.52 43.95 -10.68c19.56,12.15 39.25,24.29 58.97,36.72 9.85,8.47 19.68,17.57 29.42,27.41 24.34,24.49 39.83,39.52 46.39,45.16 19.93,17.13 37.74,30.71 53.49,40.65 15.59,9.96 37.21,22.03 64.7,36.22z"/>
  <g id="_1894026172192">
   <path class="fil2" d="M6856.07 8179.81c-37.28,9.76 -72.28,4.27 -104.96,-16.4 -31.96,-20.29 -53.58,-49.61 -64.9,-88.07 -4.61,-15.68 -8,-28.53 -10.11,-38.57 -2.11,-10.05 -3.48,-20.83 -4.13,-32.27 15.03,2.94 25.61,4.7 31.75,5.23 6.21,0.56 12.75,0.7 19.62,0.45 1.95,-0.08 10.92,-1.64 26.92,-4.65 15.98,-3.06 33.4,-6.61 52.36,-10.72 18.9,-4.09 36.38,-8.25 52.32,-12.42l-21.19 -41.05c6.15,3.99 11.53,7.32 16.14,9.94 4.58,2.69 10.18,5.8 16.87,9.33 9.62,5.25 19.04,9.97 28.38,14.29 7.09,13.33 12.37,24.19 15.76,32.62 3.39,8.43 6.77,18.36 10.13,29.79 6.46,21.94 9.44,41.29 8.89,58.05 -0.68,20.51 -6.28,37.53 -16.92,51.07 -12.16,15.49 -31.13,26.63 -56.93,33.38zm-24.83 -62.29c17.62,-4.61 30.57,-13.17 38.92,-25.64 9.18,-13.74 10.92,-30.28 5.2,-49.7l-142.6 28.96c6.18,21.01 17.88,35.63 35.05,43.86 17.18,8.28 38.32,9.09 63.43,2.52zm209.72 207.5c-5.19,-1.48 -9.81,-2.74 -13.87,-3.74 -4.05,-0.98 -8.53,-1.88 -13.46,-2.74 -6.51,-1.26 -12.37,-2.27 -17.63,-3.05 -5.2,-0.81 -10.96,-1.42 -17.29,-1.86 -4.37,-7.31 -7.73,-13.17 -10.11,-17.69 -2.37,-4.51 -5.14,-10.55 -8.26,-17.93 -0.6,-1.44 -1.07,-2.54 -1.39,-3.29 -0.48,-1.15 -0.86,-2.05 -1.13,-2.67 -0.44,-1.06 -0.74,-1.78 -0.9,-2.15 -0.97,-2.29 -1.89,-4.77 -2.79,-7.3 -0.89,-2.54 -1.78,-5.46 -2.56,-8.71l-46.01 11.69c2.21,5.24 4.5,10.02 6.96,14.29 3.55,5.79 6.28,10.46 8.31,14l10.86 18.56c-4.24,-0.34 -9.85,-0.71 -16.81,-1.14 -6.93,-0.45 -13.19,-0.74 -18.76,-0.87l-23.99 -0.77 -12.49 -29.61 -11.41 3.62c-2.48,0.93 -4.67,1.58 -6.59,2.03 -6.55,1.52 -10.23,2.4 -11.09,2.73 -1.92,0.71 -3.84,1.43 -5.77,2.15 -1.96,0.74 -3.89,1.47 -5.81,2.18 3.85,6.91 7.47,14.38 10.9,22.48 1.4,3.35 2.93,7.8 4.59,13.41 1.67,5.62 3.21,10.11 4.62,13.45 2.05,4.86 6.42,13.11 13.03,24.76 3.36,5.87 5.86,10.84 7.53,14.79 -3.49,-0.77 -5.95,-1.35 -7.34,-1.71 -2.81,-0.55 -5.16,-1.27 -7.05,-2 -6.13,-2.17 -10.66,-3.73 -13.59,-4.73 -2.94,-0.99 -6.07,-1.75 -9.29,-2.31 -4.32,-0.92 -8.6,-1.63 -12.77,-2.22 -4.23,-0.57 -8.44,-0.87 -12.74,-0.91 -2.21,-5.25 -6.86,-14.43 -13.96,-27.52 -3.53,-6.57 -6.35,-12.3 -8.46,-17.3 -2.95,-6.96 -5.29,-12.93 -7.02,-18.02 -1.72,-5.05 -5.63,-17.06 -11.6,-36.08l-5.79 -19.86 -4.23 -15.15c11.13,0.3 21.38,0.99 30.69,2.09 1.49,0.21 5.53,0.9 12.19,2.1 3.58,0.58 6.84,1.07 9.86,1.44 2.56,-1.02 4.56,-1.82 6.08,-2.39 1.51,-0.58 2.64,-0.94 3.52,-1.21 2.18,-0.82 4.22,-1.53 6.16,-2.2 1.9,-0.67 4.54,-1.32 7.86,-2.06 3.34,-0.71 6.7,-1.36 10.1,-1.87 2.89,-1.08 5.02,-2.16 6.47,-3.14l-6.31 -21.22c3.32,0.54 6.96,1.09 10.86,1.73 3.87,0.59 7.38,1.27 10.45,2 3.03,0.68 6.47,1.6 10.22,2.73 3.8,1.06 7.56,2.36 11.31,3.76l22.46 -7.31c2.98,-1.12 7.03,-2.2 12.1,-3.22 5.08,-1.02 9.16,-2.05 12.14,-3.17l10.42 -5.02 -16.38 -27.31 26.78 6.02 23.72 5.58c6.31,10.1 12.71,20.24 19.04,30.51 2.59,6.16 5.01,12.59 7.2,19.33 5.53,16.81 9.16,27.27 10.89,31.37 5.25,12.44 10.38,22.77 15.42,30.99 4.98,8.18 12.3,18.75 21.91,31.66zm-71.43 224.99c-10.02,0.75 -19.92,1.48 -29.8,2.16 -5.55,0.82 -10.1,1.62 -13.65,2.42 -3.55,0.77 -8.12,1.95 -13.8,3.5l-11.06 -14.04c-0.3,-0.49 -7.02,-8.61 -20.27,-24.29 -7.38,-8.88 -14.08,-18.08 -20.03,-27.58 -5.15,-8.23 -11.86,-19.14 -20.18,-32.74 -8.35,-13.65 -14.06,-22.98 -17.19,-27.98l31.18 -7.93 22.74 -5.44 5.8 6.83 47.05 -22.54c15.75,-8.77 28.93,-15.86 39.66,-21.24 10.7,-5.42 23.31,-11.24 37.69,-17.53 6.2,-2.61 12.7,-5.27 19.64,-7.88 6.93,-2.67 12,-4.66 15.27,-6l14.38 15.3c5.51,6.88 11.09,13.79 16.82,20.72 5.88,6.15 12.04,11.96 18.51,17.35 -9.85,2.74 -19.59,5.53 -29.21,8.34 -15.03,4.97 -25.54,8.67 -31.56,11.06 -9.22,3.65 -19.21,8.48 -29.89,14.44 -4.18,2.31 -8.79,4.93 -13.87,7.82 -5,2.91 -10.53,6.1 -16.52,9.56 -6.79,3.78 -11.63,6.35 -14.46,7.69 -2.83,1.33 -7.73,3.58 -14.78,6.67 -1.34,0.57 -5.16,2.34 -11.46,5.31 -6.3,2.97 -10.54,4.97 -12.78,6.04 3.8,6.05 6.61,10.44 8.39,13.09 8.87,13.17 13.51,20.06 13.86,20.64 4.05,6.45 8.65,12.7 13.78,18.78 1.21,1.43 6.49,7.24 15.74,17.47zm222 -23.57c-7.61,3.3 -14.64,6.38 -21.06,9.39 -6.4,2.92 -13.26,6.85 -20.53,11.74 -2.53,1.7 -7.42,4.5 -14.76,8.41 -7.28,3.9 -13.11,7.32 -17.4,10.21l-23.43 15.08 -101.51 68.32c-6,-5.1 -11.47,-9.49 -16.37,-13.06 -4.87,-3.59 -11.13,-7.9 -18.73,-12.99 -3.73,-2.53 -7.41,-4.92 -11.04,-7.07 -2.59,-1.48 -6.44,-3.74 -11.56,-6.71l33.13 -19.29c7.17,-4.82 20.75,-12.25 40.62,-22.29 10.06,-5.07 18.32,-9.8 24.87,-14.22l66 -44.42c7.26,-4.89 14.22,-9.13 20.82,-12.76 9.04,-4.5 16.22,-8.26 21.71,-11.26 2.62,3.47 4.93,6.26 6.86,8.37 1.98,2.07 3.71,3.93 5.34,5.55 5.45,5.53 12.76,11.2 21.99,17.03 6.82,4.42 11.85,7.71 15.05,9.97zm144.26 179.63c-9.28,2.55 -15.91,4.39 -19.97,5.45 -7.11,1.95 -13.55,4.17 -19.39,6.66 -21.11,8.86 -40.33,16.4 -57.79,22.65 -19.05,6.86 -41.06,14.03 -66.08,21.57 -24.97,7.53 -51.7,14.7 -80.2,21.57l-22.66 -14.47 -22.56 -15.31c10.79,-15.03 21.67,-30.1 32.67,-45.12 6.73,-10.03 12.72,-19.45 17.89,-28.36 5.22,-8.92 10.38,-17.75 15.57,-26.47 6.77,-11.26 12.84,-20.75 18.23,-28.62 9.4,-13.39 16.35,-23.18 20.78,-29.26 5.95,-7.9 13.37,-17.33 22.26,-28.36 2.76,3.04 5.2,5.66 7.38,7.83 2.17,2.15 6.35,5.96 12.54,11.29 8.85,7.37 19,14.45 30.52,21.16 -2.27,2.38 -4.56,4.76 -6.75,7.07 -2.24,2.35 -4.43,4.91 -6.67,7.8 -3.72,4.83 -7.17,10.73 -10.46,17.77 -4.27,9.25 -7.42,15.51 -9.33,18.68 -6.86,11.53 -15.04,23.74 -24.52,36.66 -5.83,8.02 -11.48,15.61 -16.86,22.85 20.66,-8.64 40.96,-16.57 60.84,-23.7 12.5,-4.7 24.48,-8.88 35.77,-12.51 8.42,-2.81 20.54,-6.58 36.29,-11.32l22.63 15.23 29.87 19.26zm138.57 131.93c-5.37,0.69 -10.13,1.36 -14.27,2.03 -4.1,0.69 -8.58,1.62 -13.45,2.77 -6.47,1.39 -12.26,2.78 -17.38,4.11 -5.09,1.29 -10.6,3.01 -16.55,5.07 -7.19,-4.94 -12.83,-8.96 -16.98,-12.14 -4.14,-3.19 -9.32,-7.59 -15.41,-13.09 -1.18,-1.08 -2.08,-1.89 -2.71,-2.46 -0.94,-0.85 -1.69,-1.52 -2.19,-1.99 -0.87,-0.78 -1.46,-1.31 -1.78,-1.59 -1.88,-1.71 -3.8,-3.6 -5.74,-5.55 -1.93,-1.97 -4.01,-4.28 -6.15,-6.92l-36.74 28.62c4.32,3.9 8.51,7.35 12.62,10.28 5.78,3.88 10.31,7.05 13.71,9.49l18.05 12.64c-4,1.34 -9.27,3.19 -15.8,5.53 -6.49,2.31 -12.33,4.49 -17.45,6.55l-22.17 8.68 -24.39 -22.07 -8.79 7.76c-1.85,1.81 -3.55,3.26 -5.1,4.42 -5.3,3.95 -8.25,6.18 -8.9,6.82 -1.43,1.4 -2.85,2.8 -4.29,4.21 -1.47,1.44 -2.9,2.86 -4.33,4.26 6.53,4.78 13.12,10.16 19.79,16.2 2.75,2.49 6.1,5.94 10.08,10.4 3.99,4.46 7.37,7.94 10.12,10.44 4,3.62 11.6,9.42 22.75,17.44 5.62,4.03 10.09,7.56 13.36,10.51 -3.54,0.66 -6.03,1.1 -7.44,1.32 -2.81,0.59 -5.26,0.85 -7.29,0.93 -6.54,0.42 -11.34,0.77 -14.45,1.01 -3.12,0.25 -6.3,0.77 -9.48,1.53 -4.33,0.84 -8.54,1.88 -12.6,2.97 -4.09,1.13 -8.06,2.51 -11.98,4.15 -4.32,-3.91 -12.59,-10.45 -24.81,-19.58 -6.09,-4.6 -11.19,-8.71 -15.31,-12.44 -5.74,-5.19 -10.5,-9.7 -14.31,-13.65 -3.79,-3.93 -12.62,-13.33 -26.41,-28.3l-14.01 -15.81 -10.51 -12.13c10.26,-4.09 19.9,-7.46 28.84,-10.1 1.45,-0.4 5.43,-1.35 12.02,-2.86 3.52,-0.86 6.7,-1.69 9.61,-2.54 1.88,-1.92 3.35,-3.44 4.48,-4.55 1.12,-1.12 1.99,-1.89 2.67,-2.49 1.63,-1.59 3.17,-3.04 4.64,-4.4 1.43,-1.34 3.55,-2.97 6.24,-4.94 2.73,-1.96 5.5,-3.86 8.38,-5.66 2.15,-2.11 3.61,-3.92 4.51,-5.38l-15.08 -16.84c3.26,-0.82 6.81,-1.73 10.64,-2.67 3.79,-0.98 7.28,-1.74 10.38,-2.28 3.06,-0.55 6.6,-1.07 10.51,-1.5 3.92,-0.52 7.92,-0.82 11.95,-1l17.22 -15.43c2.22,-2.19 5.44,-4.75 9.6,-7.66 4.17,-2.92 7.43,-5.45 9.65,-7.64l7.27 -8.63 -26.92 -18.45 27.02 -5 24.05 -4.19c10.19,6.72 20.46,13.44 30.74,20.33 5.06,4.57 10.09,9.49 15.05,14.77 12.42,13.14 20.33,21.23 23.71,24.28 10.25,9.27 19.46,16.67 27.65,22.18 8.13,5.5 19.44,12.25 33.86,20.23zm24.49 309.71c-5.7,-3.86 -11.01,-7.9 -15.88,-12.15 -6.04,-5.72 -10.97,-10.26 -14.78,-13.62 -5.75,-5.4 -10,-9.42 -12.56,-12.07 -2.59,-2.66 -6.26,-6.74 -11.02,-12.31l5.29 -64.13 3.94 -46.08c-7.03,6.01 -13.99,11.99 -20.87,18.08 -6.56,6.26 -11.77,11.71 -15.7,16.31 -3.84,4.6 -9.2,11.4 -15.95,20.41 -3.17,-0.04 -7.69,0.02 -13.65,0.33 -8.88,0.3 -16.21,-0.06 -21.95,-1.19 -7.32,-1.54 -13.57,-3.25 -18.7,-5.22 -5.16,-2 -10.53,-4.88 -16.13,-8.6 13.86,-11.39 27.77,-22.74 41.7,-34.12 5.36,-5.55 10.13,-10.77 14.28,-15.69 4.14,-4.89 9.08,-11.22 14.83,-18.89l50.02 -67.81c-2.56,-1.39 -5.1,-2.71 -7.57,-4.04 -2.55,-1.32 -5.17,-2.45 -7.96,-3.24l-21.01 -6.39c10.81,-3.66 20.79,-7.64 30.01,-12.04 6.18,-2.99 11.15,-5.53 14.86,-7.63 4.86,-2.67 9.63,-5.58 14.34,-8.73l15.28 8.67c7.07,4.71 20.92,11.75 41.53,21.07 10.33,4.68 18.94,9.29 25.87,13.91 21.91,14.6 35.5,30.43 40.69,47.51 5.23,17.12 1.84,33.65 -10.18,49.7 -9.46,12.62 -21.02,21.38 -34.55,26.19 -13.57,4.83 -27.98,5.23 -43.21,1.19 -2.04,10.81 -3.62,20.57 -4.73,29.26 -0.86,6.39 -1.87,16.27 -3.13,29.76 -1.21,13.45 -2.02,25.3 -2.5,35.46 -0.46,10.12 -0.65,22.19 -0.61,36.1zm35.09 -184.57c5.85,-7.8 7.99,-15.54 6.4,-23.2 -1.58,-7.65 -6.05,-13.96 -13.48,-18.91 -3.69,-2.45 -6.54,-4.16 -8.54,-5.05 -2,-0.89 -4.79,-1.7 -8.39,-2.4l-18.66 24.9c-4.49,5.99 -8.46,11.01 -11.78,15.01 -11.72,13.94 -18.21,21.8 -19.56,23.61 11.14,5.4 23.69,7.23 37.71,5.51 15.99,-2.04 28.11,-8.53 36.3,-19.47zm265.58 65.07c-12.31,8.91 -21.03,15.28 -26.27,19.05 -9.4,6.65 -18.26,12.41 -26.63,17.19 -11.67,6.54 -22.58,12.95 -32.67,19.29 -10.08,6.31 -18.65,11.83 -25.64,16.59 -17.48,11.78 -26.92,18.17 -28.37,19.09 -6.88,8.99 -13.69,17.95 -20.4,26.86 -3.24,3.81 -6.39,7.48 -9.49,11.06 -3.15,3.55 -7.3,8.03 -12.52,13.43l-41.08 -3.89 -37.8 -4.28c4.23,-4.27 7.37,-7.52 9.59,-9.69 2.2,-2.23 5.13,-4.72 8.71,-7.56 6.29,-5.17 11.39,-9.85 15.34,-14.09 6.57,-7.08 13.01,-15.64 19.3,-25.79 2.05,-3.33 6.56,-9.29 13.57,-17.89 3.55,-4.3 6.32,-8.17 8.46,-11.64 0.88,-21.07 1.72,-42.17 2.53,-63.24 1.02,-10.6 2.22,-20.69 3.55,-30.17 1.37,-9.46 3.13,-19.32 5.25,-29.68 8.89,3.47 17.97,6.09 27.25,7.81 5.89,1.16 10.96,1.92 15.21,2.3 4.26,0.32 9.57,0.51 15.86,0.41 -1.38,7.74 -2.57,15.58 -3.58,23.51 -0.72,5.55 -1.6,13.39 -2.64,23.51 -1.31,13.41 -2.15,27.1 -2.52,41.15 4.27,-1.51 11.01,-5.48 20.06,-11.97 4.67,-3.37 9.37,-6.78 14.19,-10.19l30.15 -21.56c5.31,2.94 9.98,5.27 14.11,6.94 4.1,1.72 7.33,3.02 9.63,3.98 6.88,2.54 12.5,4.34 16.86,5.42 4.3,1.12 10.97,2.46 19.99,4.05zm264.68 216.73c-12.86,34.4 -37.67,58.31 -74.36,71.73 -35.94,13.09 -73.82,13.01 -113.74,-0.26 -16.27,-5.41 -29.39,-10.14 -39.33,-14.26 -9.94,-4.12 -20.09,-9.24 -30.41,-15.28 11.17,-9.94 18.74,-17.11 22.72,-21.56 4.03,-4.47 7.91,-9.45 11.62,-14.9 1.05,-1.56 4.83,-9.38 11.38,-23.47 6.48,-14.12 13.38,-29.62 20.65,-46.62 7.27,-16.95 13.67,-32.84 19.16,-47.55l-47.82 -7.13c6.99,-2.47 12.96,-4.72 17.88,-6.79 4.96,-2 10.88,-4.54 17.77,-7.69 10.09,-4.44 19.58,-9.01 28.68,-13.77 15.65,2.16 28.11,4.3 37.39,6.51 9.27,2.2 19.84,5.28 31.7,9.22 22.77,7.57 41.31,16.35 55.56,26.36 17.45,12.28 29.05,26.36 34.73,42.34 6.5,18.25 5.32,39.3 -3.58,63.12zm-68.38 -16.48c6.07,-16.26 6.04,-31.18 -0.01,-44.78 -6.69,-14.95 -20.07,-25.77 -40.24,-32.47l-56.47 126.83c21.82,7.24 41.23,6.57 58.21,-1.99 17.04,-8.53 29.84,-24.41 38.51,-47.59zm299.86 -44.57c-4.24,3.19 -7.96,6.06 -11.16,8.62 -3.15,2.58 -6.49,5.55 -10.04,8.88 -4.8,4.32 -9.02,8.3 -12.7,11.92 -3.67,3.57 -7.48,7.7 -11.47,12.35 -8.86,-0.78 -15.88,-1.51 -21.17,-2.24 -5.3,-0.74 -12.14,-2.02 -20.35,-3.81 -1.6,-0.35 -2.81,-0.61 -3.66,-0.8 -1.27,-0.27 -2.28,-0.5 -2.96,-0.65 -1.18,-0.25 -1.97,-0.43 -2.4,-0.51 -2.54,-0.56 -5.22,-1.25 -7.94,-2 -2.72,-0.75 -5.77,-1.73 -9.04,-2.98l-16.02 42.33c5.83,1.27 11.3,2.21 16.41,2.74 7.08,0.55 12.7,1.08 16.94,1.53l22.38 2.15c-2.72,3.09 -6.24,7.22 -10.58,12.38 -4.32,5.11 -8.15,9.8 -11.44,14.04l-14.32 18.16 -32.93 -7.18 -3.35 10.9c-0.6,2.45 -1.27,4.52 -1.98,6.27 -2.41,5.95 -3.74,9.29 -3.94,10.15 -0.46,1.89 -0.93,3.78 -1.4,5.69 -0.48,1.94 -0.94,3.85 -1.4,5.75 8.2,0.94 16.78,2.4 25.79,4.36 3.71,0.81 8.46,2.16 14.3,4.07 5.86,1.9 10.65,3.27 14.36,4.07 5.42,1.19 15.09,2.5 29.01,4.01 7.03,0.75 12.79,1.62 17.19,2.58 -2.68,2.27 -4.57,3.85 -5.68,4.72 -2.08,1.87 -4.04,3.28 -5.75,4.33 -5.39,3.51 -9.32,6.13 -11.87,7.84 -2.54,1.71 -4.99,3.7 -7.31,5.88 -3.26,2.82 -6.31,5.74 -9.21,8.64 -2.9,2.95 -5.56,6.05 -8.04,9.34 -5.83,-1.26 -16.49,-2.9 -31.93,-4.84 -7.75,-1.01 -14.35,-2.08 -19.92,-3.3 -7.75,-1.68 -14.28,-3.26 -19.7,-4.81 -5.38,-1.55 -18.08,-5.36 -38.05,-11.57l-20.62 -6.8 -15.62 -5.35c6.6,-8.48 13.04,-16.02 19.29,-22.61 1.04,-1.03 3.94,-3.77 8.78,-8.25 2.56,-2.44 4.84,-4.69 6.87,-6.82 0.58,-2.57 1.01,-4.58 1.37,-6.07 0.37,-1.51 0.7,-2.59 0.95,-3.43 0.53,-2.15 1.08,-4.14 1.6,-6.02 0.5,-1.85 1.44,-4.28 2.67,-7.27 1.29,-2.98 2.64,-5.96 4.13,-8.89 0.7,-2.86 0.98,-5.12 0.95,-6.8l-22.09 -7.19c2.35,-2.28 4.91,-4.77 7.69,-7.44 2.71,-2.67 5.3,-5 7.68,-6.95 2.33,-1.97 5.08,-4.11 8.21,-6.37 3.08,-2.34 6.36,-4.52 9.72,-6.63l6.41 -21.57c0.73,-2.95 2.1,-6.71 4.1,-11.21 1.99,-4.52 3.42,-8.27 4.14,-11.22l1.56 -10.93 -33.15 -2.85 20.5 -17.33 18.38 -15.22c12.4,0.86 24.88,1.68 37.44,2.63 6.84,1.49 13.83,3.28 20.96,5.42 17.79,5.3 28.99,8.42 33.55,9.42 13.83,3.02 25.76,4.93 35.8,5.7 9.96,0.8 23.34,1.14 40.06,1.04zm266.18 187.42c-3.11,8.27 -6.05,17.42 -8.89,27.35 -1.29,4.47 -2.35,8.5 -3.13,12.06 -0.77,3.53 -1.61,7.35 -2.45,11.44 -6.56,2.31 -15.38,3.84 -26.57,4.68 -11.15,0.85 -22.95,1.05 -35.36,0.67 -30.3,-0.91 -56.42,-12.33 -78.38,-34.24 -22.38,-22.34 -33.04,-48.18 -32.04,-77.56 1.14,-33.23 14.07,-61.54 38.88,-84.92 25.42,-23.93 55.65,-35.38 90.62,-34.32 12.84,0.38 22.41,0.88 28.59,1.48 6.18,0.59 13.43,2.16 21.73,4.62 -0.22,6.55 -0.34,11.53 -0.29,14.82 0,3.34 0.28,7.81 0.84,13.47 0.97,10.24 2.74,20.62 5.32,31.17 -9.52,-5.11 -17.24,-8.73 -23.15,-10.81 -8.39,-3.03 -16.99,-4.68 -25.76,-4.94 -16.8,-0.51 -31.54,5.62 -44.23,18.43 -12.69,12.81 -19.3,27.8 -19.89,45.03 -0.65,19.18 3.68,34.61 12.91,46.34 10.71,13.57 27.01,20.68 48.94,21.34 9.68,0.29 17.08,0.16 22.22,-0.4 5.13,-0.56 15.17,-2.47 30.09,-5.71zm250.56 -75.59c2.55,31.47 -6.16,59.48 -26.22,83.97 -20.72,25.27 -47.11,39.05 -79.23,41.36 -36.62,2.63 -66.41,-5.93 -89.29,-25.68 -21.31,-18.49 -33.21,-43.46 -35.76,-74.92 -1.6,-19.76 2.44,-39.39 12.15,-58.88 8.98,-17.93 20.35,-31.3 33.98,-40.16l-5.47 -10.21c9.75,-5.03 19.88,-9.25 30.47,-12.64 12.61,-3.94 25.24,-6.39 37.99,-7.31 37.93,-2.73 67.66,6.46 89.18,27.6 18.85,18.5 29.55,44.13 32.2,76.87zm-67.65 4.31c-1.12,-13.86 -2.69,-24.31 -4.56,-31.32 -2.72,-9.89 -7.11,-18.49 -13.28,-25.76 -4.1,-4.8 -10.4,-7.84 -19.02,-9.18 -6.13,-0.95 -13.56,-1.08 -22.3,-0.45 -0.87,0.07 -3.04,0.27 -6.55,0.67 -3.51,0.41 -5.64,0.57 -6.35,0.46 -9.87,10.23 -16.75,22.36 -20.62,36.43 -3.17,11.55 -4.23,23.97 -3.15,37.28 1.56,19.34 6.67,35.39 15.34,48.14 10.36,15.25 23.86,22.27 40.47,21.07 16.38,-1.18 27.76,-9.57 34.31,-25.22 5.52,-13.2 7.45,-30.59 5.71,-52.12zm367.5 25.04c-9.33,5.44 -18.59,10.9 -27.77,16.29 -8.52,5.72 -17.01,12.28 -25.57,19.7 -10.23,-23.25 -20.52,-46.49 -30.81,-69.77 -4.62,-12.57 -8.14,-22.56 -10.55,-29.97 -2.45,-7.42 -4.88,-16.11 -7.34,-26.05 -1.51,3.17 -3.46,9.29 -5.97,18.33 -2.51,9.04 -5,18.17 -7.52,27.37 -3.6,12.81 -7.03,24 -10.22,33.44 -3.79,11.33 -7.63,21.07 -11.5,29.19 -3.84,8.17 -8.86,17.18 -15.14,27.05 -8.37,-17.29 -16.72,-34.57 -25.02,-51.82 -2.11,-3.54 -4.03,-6.8 -5.83,-9.78 -6.15,-9.71 -9.64,-15.26 -10.45,-16.71 -0.81,-1.47 -2.76,-5.05 -5.82,-10.85 -3.1,-5.74 -5.61,-10.46 -7.58,-14.14 -0.91,5.32 -1.72,13.35 -2.37,24.08 -0.67,13.06 -1.27,22.1 -1.87,27.18 -1.69,14.39 -3.27,28.75 -4.86,43.11 -0.2,4.58 -0.31,9.09 -0.26,13.6 -0.06,6.97 0.25,14.34 1.01,22.11 -8.69,-2.34 -17.66,-3.84 -26.83,-4.52 -3.36,-0.25 -6.96,-0.35 -10.79,-0.25 -3.79,0.04 -7.22,0.17 -10.13,0.38 -0.22,-12.38 -0.55,-25.22 -0.87,-38.47 -0.36,-13.21 -0.6,-23.84 -0.8,-31.87 -0.16,-13.98 -0.15,-26.31 0.06,-37 0.48,-13.43 1.27,-26.2 2.43,-38.47 1.21,-12.23 2.44,-24.2 3.72,-35.97 1.4,-14.47 2.07,-26.8 2.13,-36.98 3.28,-0.72 5.84,-1.5 7.63,-2.32 1.87,-0.83 3.62,-1.69 5.36,-2.49 9.08,-3.53 18.07,-8.08 27.1,-13.61 5.73,6.7 10.96,13.14 15.86,19.38 4.85,6.26 9.88,13.26 15.1,21.02 6.2,9.27 11.61,17.77 16.27,25.55 4.61,7.78 9.37,16.6 14.21,26.43 4.15,-14.13 7.19,-24.67 9.04,-31.61 2.34,-8.84 4.88,-19.56 7.66,-32.07 1.97,-8.5 3.23,-14.47 3.89,-17.89 0.98,-4.59 2.1,-10.69 3.37,-18.18 3.34,-1.16 6.23,-2.17 8.66,-2.96 2.41,-0.85 4.32,-1.53 5.68,-2.09 12.97,-5.18 25.17,-11.65 36.41,-19.56 1.33,5.39 2.76,11.61 4.27,18.66 1.53,7.05 2.38,10.96 2.59,11.76 0.89,3.65 3.4,10.16 7.48,19.64 4.08,9.43 8.71,20.05 14.02,31.74 7.94,17.43 13.01,28.86 15.31,34.31l36.61 85.08zm31.81 -248.32c1.15,7.81 2.25,15.04 3.44,21.71 1.1,6.63 3.11,13.95 5.97,21.93 0.99,2.77 2.42,8 4.27,15.75 1.84,7.7 3.63,13.95 5.32,18.67l8.52 25.5 39.99 111.4c-6.93,3.94 -12.96,7.59 -18,11 -5.07,3.34 -11.24,7.75 -18.62,13.14 -3.64,2.62 -7.13,5.25 -10.36,7.91 -2.25,1.91 -5.66,4.72 -10.16,8.49l-9.99 -35.49c-2.82,-7.87 -6.44,-22.27 -10.88,-43.11 -2.24,-10.55 -4.65,-19.37 -7.22,-26.56l-26 -72.42c-2.86,-7.97 -5.15,-15.48 -6.93,-22.49 -1.96,-9.45 -3.7,-17.03 -5.15,-22.85 4.28,-1.36 7.79,-2.63 10.48,-3.77 2.68,-1.18 5.07,-2.21 7.18,-3.21 7.19,-3.32 15.07,-8.27 23.66,-14.91 6.46,-4.88 11.27,-8.47 14.48,-10.69zm277.33 6.14c17.46,32.55 18.63,65.98 3.53,100.26 -14.83,33.52 -41.08,59.26 -78.86,77.28 -15.39,7.33 -28.1,12.99 -38.13,16.92 -10.03,3.91 -20.97,7.29 -32.73,10.14 0.1,-14.48 -0.15,-24.6 -0.81,-30.38 -0.63,-5.85 -1.76,-11.92 -3.38,-18.23 -0.47,-1.79 -3.84,-9.77 -10.1,-23.97 -6.33,-14.18 -13.44,-29.59 -21.43,-46.32 -7.97,-16.66 -15.71,-32 -23.17,-45.92l-38.54 27.63c2.94,-6.46 5.35,-12.09 7.17,-16.87 1.9,-4.76 4.04,-10.55 6.39,-17.42 3.58,-9.93 6.64,-19.56 9.3,-29.05 12.46,-9.17 22.73,-16.18 30.83,-20.96 8.11,-4.8 17.77,-9.87 28.99,-15.21 21.55,-10.28 41.1,-16.83 58.62,-19.61 21.48,-3.4 40.27,-1.56 56.45,5.62 18.48,8.21 33.79,23.56 45.87,46.09zm-59.91 35.18c-8.25,-15.39 -19.7,-25.69 -34.3,-30.96 -16.09,-5.79 -33.63,-4.15 -52.71,4.94l58.09 126.16c20.64,-9.83 33.55,-23.51 38.75,-41 5.24,-17.51 1.93,-37.21 -9.83,-59.14z"/>
   <path class="fil2" d="M9675.48 9059.81c-4.86,4.07 -8.68,7.28 -11.47,9.55 -2.74,2.33 -6.2,5.55 -10.18,9.59 -4.03,4.06 -7.67,8.13 -10.92,12.2 -3.24,4.08 -6.84,9.16 -10.86,15.34l-15.91 -15.44c-1.8,-1.73 -3.49,-3.26 -5.09,-4.68 -1.55,-1.44 -4.72,-4.03 -9.57,-7.88 -4.09,1.97 -9.5,4.49 -16.26,7.57 -6.75,3.08 -12.12,5.82 -16.07,8.18l-34.49 20.7c0.35,8.14 0.6,16.25 0.88,24.42l1.62 23.23c-4.94,-0.92 -9.47,-1.5 -13.46,-1.71 -4.07,-0.17 -8.33,0.01 -12.92,0.58 -4.61,0.51 -8.7,1.25 -12.31,2.21 -3.61,0.95 -7.49,2.37 -11.62,4.17 -0.18,-5.42 -0.37,-9.44 -0.56,-12 -0.19,-2.57 -0.52,-6.32 -1.06,-11.23 -0.33,-2.59 -0.64,-5.15 -0.93,-7.77 -0.34,-2.6 -0.65,-5.26 -1.09,-7.93l-32.98 -24.6 25.95 -8.95c-2.2,-16.32 -4.42,-31.28 -6.68,-44.76 -2.25,-13.56 -5.09,-28.46 -8.46,-44.73 -2.19,-10.5 -4.62,-21.56 -7.35,-33.25 -2.69,-11.71 -5.56,-22.75 -8.53,-33.07l20.72 -16.82c7.23,-6.47 13.57,-12.46 19.03,-18.06l9.97 10.2c8.95,8.86 18.55,17.34 28.91,25.42 6.49,5.03 15.86,11.95 28.03,20.7 13.42,9.65 23.85,17.37 31.28,23.2 14.07,10.82 24.17,18.69 30.23,23.57 11.06,8.76 20.94,16.88 29.5,24.51 6.02,5.56 12.08,10.99 18.1,16.39 2.31,1.89 4.91,3.92 7.82,6.12 2.83,2.2 5.12,3.87 6.73,5.03zm-110.78 -11.43l-25.64 -20.68 -31.02 -26.27c1.19,6.16 2.36,12.21 3.5,18.28 0.86,4.35 2.26,10.51 4.1,18.4 2.09,9.03 3.38,14.57 3.87,16.53 1.32,5.3 2.81,10.85 4.5,16.71l18.12 -10.15 22.57 -12.82zm299.36 -287.6c23.16,22.79 35.3,49.62 36.31,80.56 1.02,31.92 -10.09,58.37 -33.34,79.39 -26.52,23.97 -55.28,35.2 -86.27,33.63 -28.9,-1.51 -54.93,-13.66 -78.09,-36.45 -14.54,-14.29 -24.65,-31.88 -30.27,-52.75 -5.15,-19.22 -5.38,-36.35 -0.81,-51.36l-11.1 -4.61c4.14,-9.72 9.12,-19.06 15.02,-28.01 7.09,-10.6 15.19,-20.06 24.42,-28.41 27.46,-24.82 56.6,-35.53 87.47,-32.08 27.02,3 52.56,16.39 76.66,40.09zm-49.36 43.84c-10.21,-10.03 -18.45,-17.16 -24.62,-21.45 -8.75,-6.02 -17.94,-10.02 -27.6,-11.95 -6.4,-1.26 -13.33,0.17 -20.88,4.3 -5.38,2.94 -11.21,7.29 -17.53,13.01 -0.63,0.57 -2.16,2.03 -4.61,4.44 -2.43,2.42 -3.97,3.81 -4.59,4.16 -0.73,13.8 2.13,27.29 8.61,40.49 5.33,10.8 12.88,21.04 22.68,30.67 14.24,14 28.99,23.33 44.28,27.99 18.27,5.58 33.43,2.91 45.45,-7.95 11.85,-10.73 15,-24.02 9.51,-40.03 -4.63,-13.51 -14.85,-28.09 -30.7,-43.68zm68.57 -271.68l39.9 30.43c11.51,8.54 24.51,18.34 39.04,29.4 14.53,11.05 22.58,17.17 24.16,18.34l13.8 10.25c8.73,6.49 15.23,11.46 19.46,14.86 4.22,3.41 10.13,8.44 17.73,15.19 3.67,2.73 6.42,4.91 8.18,6.61 4.92,5.23 8.96,9.34 12.02,12.33 0.57,2.71 1.1,5.39 1.63,8.07 0.77,4.23 0.98,8.7 0.63,13.34 -0.4,6.7 -0.71,11.29 -0.91,13.76 -0.58,5.19 -1.51,10.18 -2.8,15.04 -3.26,-0.33 -6.52,-0.73 -9.84,-1.24 -0.74,-0.03 -6.06,-0.45 -15.89,-1.29 -15.02,-0.77 -29.95,-1.55 -44.87,-2.44 -11.17,-1.05 -24.14,-3.04 -38.83,-5.86 -18.46,-3.53 -31.19,-5.86 -38.2,-7.02 4.58,3.4 8.42,6.44 11.44,9.03 10.8,9.13 17.13,14.41 18.96,15.78 7.82,5.82 15.15,11.97 22.01,18.44 8.33,8.35 15.09,15.01 20.35,20.15l-8.01 26.58 -7.94 26.59c-4.32,-4.46 -8.4,-8.61 -12.38,-12.47 -3.95,-3.8 -8.9,-8.58 -14.8,-14.2 -3.3,-3.18 -7.95,-7.16 -13.91,-11.97 -5.98,-4.78 -11.31,-8.92 -16.01,-12.42 -3.46,-2.58 -6.96,-5.18 -10.52,-7.81 -3.58,-2.67 -7.17,-5.34 -10.85,-8.08 -6.8,-5.05 -13.18,-9.99 -19.22,-14.8 -6.03,-4.81 -11.88,-9.82 -17.5,-15.04 -5.64,-5.17 -10.97,-10.25 -15.96,-15.12 -2.79,-2.73 -7.67,-7.59 -14.67,-14.62l-25.94 -5.04c3.62,-7.89 6.44,-16.65 8.48,-26.23 1.17,-4.95 1.94,-9.61 2.35,-14 0.39,-4.35 0.45,-9.4 0.12,-15.06l31.67 5.3 55.52 8.85 77.67 13.43 -48.68 -36.17c-5.3,-3.94 -10.39,-7.47 -15.28,-10.57 -14.48,-9.21 -22.88,-14.65 -25.19,-16.37l-17.2 -13.57c3.23,-6.36 5.59,-10.93 6.99,-13.76 2.47,-4.95 4.51,-9.45 6.1,-13.43 1.55,-4 2.95,-7.92 4.13,-11.81 0.77,-2.25 1.77,-6.02 3.06,-11.38zm267.26 -47.67c5.18,8.13 10.29,16.15 15.34,24.18 3.26,4.32 6.06,7.81 8.39,10.45 2.32,2.65 5.48,5.99 9.48,10.08l-8.41 15.59c-0.32,0.48 -5.03,9.78 -14.02,27.94 -5.14,10.19 -10.87,19.96 -17.24,29.21 -5.52,8.01 -12.88,18.54 -22.08,31.63 -9.23,13.12 -15.54,22.11 -18.89,26.98l-21.44 -22.77 -15.32 -16.78 3.91 -7.93 -42.38 -29.66c-15.35,-9.38 -27.95,-17.35 -37.85,-24 -9.92,-6.61 -21.05,-14.65 -33.44,-24 -5.23,-4.06 -10.66,-8.36 -16.24,-13.05 -5.62,-4.66 -9.77,-8.06 -12.5,-10.22l8.1 -18.96c4.09,-7.71 8.15,-15.5 12.18,-23.43 3.22,-7.7 5.98,-15.5 8.21,-23.36 7,7.1 14,14.07 20.95,20.94 11.42,10.47 19.62,17.69 24.57,21.7 7.57,6.16 16.62,12.44 27.03,18.8 4.06,2.48 8.61,5.2 13.62,8.2 4.99,2.92 10.48,6.17 16.44,9.69 6.61,4.05 11.21,6.98 13.74,8.77 2.53,1.79 6.86,4.93 12.92,9.5 1.14,0.88 4.53,3.32 10.16,7.3 5.61,3.99 9.42,6.68 11.42,8.09 4.06,-5.89 6.98,-10.22 8.69,-12.91 8.55,-13.36 13.03,-20.35 13.41,-20.9 4.33,-6.29 8.21,-12.97 11.69,-20.01 0.81,-1.65 3.98,-8.7 9.56,-21.07zm-128.41 -174.86c6.63,4.82 12.78,9.26 18.59,13.22 5.72,4 12.58,7.9 20.55,11.7 2.77,1.32 7.67,4.12 14.75,8.42 7.04,4.28 12.96,7.56 17.67,9.8l25.04 12.57 111.3 53.07c-2.01,7.38 -3.6,13.98 -4.67,19.74 -1.12,5.73 -2.25,12.95 -3.51,21.67 -0.66,4.29 -1.18,8.47 -1.52,12.5 -0.19,2.84 -0.52,7.1 -0.94,12.77l-33.5 -18.73c-7.85,-3.75 -21.13,-11.63 -39.79,-23.56 -9.43,-6.06 -17.71,-10.76 -24.9,-14.18l-72.36 -34.51c-7.96,-3.8 -15.18,-7.64 -21.66,-11.47 -8.42,-5.45 -15.29,-9.7 -20.64,-12.89 2.03,-3.8 3.59,-7.03 4.66,-9.62 1.05,-2.61 1.98,-4.92 2.74,-7.03 2.67,-7.13 4.61,-15.86 5.8,-26.27 0.98,-7.76 1.75,-13.48 2.39,-17.2zm77.42 -172.02l47.62 18.04c13.65,4.98 29.14,10.74 46.47,17.29 17.34,6.54 26.93,10.16 28.81,10.84l16.39 5.99c10.36,3.78 18.13,6.73 23.23,8.8 5.1,2.09 12.3,5.26 21.67,9.61 4.37,1.6 7.67,2.92 9.89,4.06 6.33,3.63 11.47,6.44 15.32,8.45 1.4,2.43 2.73,4.85 4.08,7.27 2.05,3.83 3.64,8.03 4.76,12.57 1.7,6.51 2.83,10.99 3.42,13.4 1.05,5.13 1.73,10.15 2.01,15.15 -3.22,0.59 -6.47,1.11 -9.8,1.55 -0.72,0.18 -5.94,1.24 -15.58,3.17 -14.6,3.42 -29.13,6.81 -43.66,10.08 -11.01,2.1 -24.02,3.78 -38.94,5.16 -18.74,1.75 -31.64,3.04 -38.69,3.88 5.43,1.98 10.04,3.82 13.74,5.45 13.17,5.74 20.85,9.04 23.04,9.84 9.29,3.39 18.2,7.25 26.77,11.53 10.57,5.67 19.11,10.17 25.74,13.62l0.63 27.63 0.69 27.61c-5.51,-3.06 -10.71,-5.9 -15.72,-8.49 -4.97,-2.54 -11.18,-5.74 -18.58,-9.47 -4.14,-2.12 -9.81,-4.64 -17.02,-7.59 -7.21,-2.91 -13.58,-5.4 -19.17,-7.44 -4.11,-1.5 -8.27,-3.02 -12.48,-4.56 -4.27,-1.55 -8.53,-3.1 -12.9,-4.7 -8.06,-2.94 -15.72,-5.91 -22.98,-8.83 -7.26,-2.93 -14.42,-6.09 -21.42,-9.52 -7,-3.39 -13.68,-6.76 -19.97,-10.05 -3.51,-1.83 -9.68,-5.12 -18.57,-9.91l-26.36 2.37c1,-8.55 0.97,-17.69 -0.07,-27.42 -0.43,-5.05 -1.14,-9.72 -2.11,-14.03 -0.99,-4.27 -2.51,-9.11 -4.58,-14.43l31.93 -3.7 55.82 -6.92 78.43 -8.68 -57.81 -21.09c-6.3,-2.3 -12.26,-4.26 -17.89,-5.88 -16.72,-4.78 -26.44,-7.66 -29.18,-8.67l-20.67 -8.2c1.11,-6.97 1.94,-12 2.4,-15.08 0.82,-5.42 1.36,-10.29 1.64,-14.53 0.23,-4.26 0.35,-8.39 0.27,-12.44 0.03,-2.36 -0.19,-6.24 -0.62,-11.73zm69.39 -180.74c3.18,4.14 6.05,7.78 8.62,10.91 2.59,3.08 5.57,6.37 8.95,9.88 4.35,4.72 8.37,8.87 12.04,12.5 3.61,3.62 7.8,7.39 12.55,11.37 -1.23,8.31 -2.34,14.89 -3.35,19.84 -1.02,4.96 -2.7,11.34 -4.97,18.99 -0.45,1.49 -0.79,2.63 -1.02,3.41 -0.35,1.19 -0.63,2.13 -0.83,2.77 -0.32,1.09 -0.54,1.83 -0.65,2.22 -0.72,2.38 -1.57,4.86 -2.48,7.39 -0.93,2.53 -2.1,5.36 -3.58,8.39l44.11 17.04c1.62,-5.43 2.86,-10.55 3.65,-15.35 0.91,-6.63 1.74,-11.9 2.41,-15.87l3.31 -20.98c3.15,2.7 7.36,6.2 12.63,10.53 5.22,4.31 10.01,8.14 14.35,11.43l18.58 14.33 -9.13 30.69 11.39 3.64c2.58,0.69 4.73,1.42 6.55,2.16 6.19,2.55 9.68,3.94 10.57,4.18 1.99,0.52 3.97,1.06 5.97,1.58 2.04,0.54 4.03,1.06 6.02,1.6 1.38,-7.69 3.31,-15.71 5.81,-24.1 1.03,-3.46 2.68,-7.88 4.97,-13.29 2.29,-5.42 3.96,-9.88 4.99,-13.33 1.5,-5.05 3.33,-14.1 5.58,-27.14 1.11,-6.59 2.31,-11.98 3.53,-16.07 2.28,2.62 3.87,4.49 4.74,5.56 1.88,2.05 3.27,3.96 4.31,5.62 3.47,5.24 6.06,9.07 7.76,11.55 1.7,2.47 3.7,4.86 5.9,7.14 2.83,3.21 5.79,6.23 8.72,9.08 2.99,2.87 6.16,5.51 9.53,8.01 -1.61,5.44 -3.83,15.39 -6.6,29.85 -1.43,7.25 -2.87,13.42 -4.41,18.6 -2.15,7.23 -4.12,13.31 -6.03,18.34 -1.87,5 -6.5,16.78 -13.99,35.31l-8.17 19.1 -6.39 14.46c-8.67,-6.6 -16.36,-13.02 -23.05,-19.21 -1.06,-1.02 -3.83,-3.88 -8.34,-8.65 -2.47,-2.51 -4.75,-4.76 -6.92,-6.78 -2.68,-0.65 -4.79,-1.16 -6.36,-1.58 -1.58,-0.41 -2.72,-0.77 -3.59,-1.06 -2.25,-0.59 -4.34,-1.19 -6.31,-1.77 -1.92,-0.56 -4.46,-1.55 -7.57,-2.85 -3.11,-1.35 -6.2,-2.76 -9.24,-4.3 -2.98,-0.8 -5.36,-1.16 -7.15,-1.21l-8.64 20.48c-2.3,-2.33 -4.83,-4.85 -7.52,-7.6 -2.7,-2.68 -5.06,-5.22 -7.01,-7.55 -1.99,-2.28 -4.12,-4.98 -6.37,-8.02 -2.34,-3.01 -4.5,-6.2 -6.57,-9.46l-22.56 -7.04c-3.09,-0.82 -7.01,-2.28 -11.7,-4.37 -4.69,-2.09 -8.6,-3.6 -11.69,-4.42l-11.5 -1.98 -4.55 31.09 -17.42 -20.11 -15.27 -18c1.48,-11.65 2.93,-23.36 4.51,-35.15 1.89,-6.37 4.11,-12.87 6.7,-19.49 6.44,-16.52 10.28,-26.92 11.53,-31.16 3.84,-12.9 6.42,-24.04 7.7,-33.46 1.31,-9.35 2.28,-21.94 2.95,-37.69z"/>
  </g>
 </g>
</svg>
